<svg width="28" height="28" viewBox="0 0 28 28" fill="none" xmlns="http://www.w3.org/2000/svg">
<path d="M16.8207 6.40635C16.2653 6.30375 15.7552 6.65817 15.6495 7.2003C15.5437 7.74243 15.8993 8.27173 16.4396 8.37783C18.0662 8.69494 19.3222 9.95408 19.6406 11.5863V11.5875C19.7312 12.0573 20.1448 12.3989 20.6212 12.3989C20.6851 12.3989 20.749 12.3931 20.8141 12.3814C21.3543 12.273 21.7099 11.7448 21.6041 11.2016C21.1289 8.76373 19.2525 6.88085 16.8207 6.40635" fill="#FF7A00"/>
<path d="M16.7472 2.34324C16.4869 2.30593 16.2255 2.38288 16.0175 2.54843C15.8037 2.71631 15.6701 2.95881 15.6411 3.23046C15.5795 3.77958 15.9757 4.27624 16.5241 4.33803C20.306 4.76008 23.2456 7.70622 23.6709 11.4999C23.7278 12.0083 24.1542 12.3918 24.6631 12.3918C24.7015 12.3918 24.7386 12.3895 24.777 12.3848C25.0431 12.3557 25.2801 12.2239 25.4474 12.0141C25.6135 11.8042 25.6891 11.5431 25.6588 11.2761C25.129 6.54268 21.4656 2.86904 16.7472 2.34324" fill="#FF7A00"/>
<path fill-rule="evenodd" clip-rule="evenodd" d="M12.871 15.1345C17.5249 19.7871 18.5807 14.4045 21.5439 17.3656C24.4006 20.2216 26.0425 20.7937 22.4231 24.4122C21.9697 24.7765 19.0892 29.16 8.96602 19.0396C-1.15841 8.918 3.2225 6.03452 3.58695 5.58127C7.21516 1.95282 7.77749 3.60428 10.6342 6.46022C13.5974 9.42258 8.21709 10.4818 12.871 15.1345Z" fill="#FF7A00"/>
</svg>
