<svg width="28" height="28" viewBox="0 0 28 28" fill="none" xmlns="http://www.w3.org/2000/svg">
<path d="M10.6566 24.2362V20.6689C10.6566 19.7582 11.4002 19.02 12.3175 19.02H15.6707C16.1112 19.02 16.5337 19.1937 16.8452 19.5029C17.1567 19.8122 17.3317 20.2316 17.3317 20.6689V24.2362C17.3289 24.6148 17.4784 24.9788 17.7471 25.2475C18.0158 25.5162 18.3814 25.6673 18.7628 25.6673H21.0505C22.1189 25.6701 23.1446 25.2506 23.901 24.5016C24.6575 23.7526 25.0827 22.7355 25.0827 21.6748V11.512C25.0827 10.6552 24.7001 9.84247 24.0381 9.29277L16.2557 3.1225C14.902 2.04064 12.9623 2.07557 11.649 3.20546L4.0442 9.29277C3.35088 9.82626 2.93649 10.6414 2.91602 11.512V21.6644C2.91602 23.8751 4.72129 25.6673 6.94822 25.6673H9.18369C9.97578 25.6673 10.6195 25.0329 10.6253 24.2466L10.6566 24.2362Z" fill="#3813E7"/>
</svg>
