<svg width="36" height="36" viewBox="0 0 36 36" fill="none" xmlns="http://www.w3.org/2000/svg">
<rect width="36" height="36" rx="6" fill="#33343B"/>
<g clip-path="url(#clip0_2391_8028)">
<path d="M27.9951 28.0008V28H28.0001V20.665C28.0001 17.0767 27.2276 14.3125 23.0326 14.3125C21.0159 14.3125 19.6626 15.4192 19.1101 16.4683H19.0517V14.6475H15.0742V28H19.2159V21.3883C19.2159 19.6475 19.5459 17.9642 21.7017 17.9642C23.8259 17.9642 23.8576 19.9508 23.8576 21.5V28.0008H27.9951Z" fill="#0077B5"/>
<path d="M8.33008 14.6484H12.4767V28.0009H8.33008V14.6484Z" fill="#0077B5"/>
<path d="M10.4017 8C9.07583 8 8 9.07583 8 10.4017C8 11.7275 9.07583 12.8258 10.4017 12.8258C11.7275 12.8258 12.8033 11.7275 12.8033 10.4017C12.8025 9.07583 11.7267 8 10.4017 8V8Z" fill="#0077B5"/>
</g>
<defs>
<clipPath id="clip0_2391_8028">
<rect width="20" height="20" fill="white" transform="translate(8 8)"/>
</clipPath>
</defs>
</svg>
