<svg width="24" height="21" viewBox="0 0 24 21" fill="none" xmlns="http://www.w3.org/2000/svg">
<path fill-rule="evenodd" clip-rule="evenodd" d="M17.4288 0C18.9933 0 20.4983 0.618333 21.6055 1.72783C22.7138 2.835 23.3333 4.32833 23.3333 5.89167V15.1083C23.3333 18.3633 20.685 21 17.4288 21H5.90333C2.64717 21 0 18.3633 0 15.1083V5.89167C0 2.63667 2.6355 0 5.90333 0H17.4288ZM19.285 7.62997L19.3783 7.53664C19.6572 7.19831 19.6572 6.70831 19.3655 6.36997C19.2033 6.19614 18.9805 6.08997 18.7483 6.06664C18.5033 6.05381 18.27 6.13664 18.0938 6.29997L12.8333 10.5C12.1567 11.0611 11.1872 11.0611 10.5 10.5L5.25 6.29997C4.88717 6.03164 4.3855 6.06664 4.08333 6.38164C3.76833 6.69664 3.73333 7.19831 4.0005 7.54831L4.15333 7.69997L9.46167 11.8416C10.115 12.355 10.9072 12.635 11.7367 12.635C12.5638 12.635 13.37 12.355 14.0222 11.8416L19.285 7.62997Z" fill="#48DCA8"/>
</svg>
