<svg xmlns="http://www.w3.org/2000/svg" xmlns:xlink="http://www.w3.org/1999/xlink" width="256" zoomAndPan="magnify" viewBox="0 0 192 49.499998" height="66" preserveAspectRatio="xMidYMid meet" version="1.0"><defs><g/><clipPath id="e7eb0ffae4"><path d="M 59 8 L 81.429688 8 L 81.429688 44.367188 L 59 44.367188 Z M 59 8 " clip-rule="nonzero"/></clipPath><clipPath id="cb05a1c7f5"><path d="M 48.757812 4.269531 L 71 4.269531 L 71 40 L 48.757812 40 Z M 48.757812 4.269531 " clip-rule="nonzero"/></clipPath></defs><g clip-path="url(#e7eb0ffae4)"><path fill="#ffffff" d="M 75.636719 33.121094 L 59.492188 23.800781 L 59.492188 31.433594 L 81.433594 44.097656 L 81.433594 8.828125 L 75.636719 8.828125 L 75.636719 33.121094 " fill-opacity="1" fill-rule="nonzero"/></g><g clip-path="url(#cb05a1c7f5)"><path fill="#ffffff" d="M 48.527344 4.269531 L 48.527344 39.542969 L 54.320312 39.542969 L 54.320312 15.25 L 70.460938 24.570312 L 70.460938 16.9375 L 48.527344 4.269531 " fill-opacity="1" fill-rule="nonzero"/></g><g fill="#ffffff" fill-opacity="1"><g transform="translate(88.687188, 29.274408)"><g><path d="M 0.375 0 L 0.375 -3.671875 L 2.84375 -3.671875 L 2.84375 -3.046875 L 1.09375 -3.046875 L 1.09375 -2.09375 L 2.5625 -2.09375 L 2.5625 -1.515625 L 1.09375 -1.515625 L 1.09375 0 Z M 0.375 0 "/></g></g></g><g fill="#ffffff" fill-opacity="1"><g transform="translate(92.560817, 29.274408)"><g><path d="M 0.375 0 L 0.375 -3.671875 L 1.09375 -3.671875 L 1.09375 0 Z M 0.375 0 "/></g></g></g><g fill="#ffffff" fill-opacity="1"><g transform="translate(94.947223, 29.274408)"><g><path d="M 1.09375 -2.359375 L 1.09375 0 L 0.375 0 L 0.375 -3.671875 L 0.9375 -3.671875 L 2.84375 -1.265625 L 2.84375 -3.671875 L 3.5625 -3.671875 L 3.5625 0 L 2.984375 0 Z M 1.09375 -2.359375 "/></g></g></g><g fill="#ffffff" fill-opacity="1"><g transform="translate(99.796845, 29.274408)"><g><path d="M 1.421875 -3.671875 L 2.0625 -3.671875 L 3.453125 0 L 2.71875 0 L 2.375 -0.921875 L 1.09375 -0.921875 L 0.765625 0 L 0.03125 0 Z M 2.25 -1.421875 L 1.75 -2.859375 L 1.21875 -1.421875 Z M 2.25 -1.421875 "/></g></g></g><g fill="#ffffff" fill-opacity="1"><g transform="translate(104.176545, 29.274408)"><g><path d="M 1.09375 -2.359375 L 1.09375 0 L 0.375 0 L 0.375 -3.671875 L 0.9375 -3.671875 L 2.84375 -1.265625 L 2.84375 -3.671875 L 3.5625 -3.671875 L 3.5625 0 L 2.984375 0 Z M 1.09375 -2.359375 "/></g></g></g><g fill="#ffffff" fill-opacity="1"><g transform="translate(109.026167, 29.274408)"><g><path d="M 0.15625 -1.859375 C 0.15625 -2.085938 0.195312 -2.3125 0.28125 -2.53125 C 0.363281 -2.75 0.484375 -2.941406 0.640625 -3.109375 C 0.796875 -3.285156 0.984375 -3.425781 1.203125 -3.53125 C 1.429688 -3.632812 1.6875 -3.6875 1.96875 -3.6875 C 2.3125 -3.6875 2.601562 -3.613281 2.84375 -3.46875 C 3.09375 -3.320312 3.273438 -3.128906 3.390625 -2.890625 L 2.84375 -2.515625 C 2.800781 -2.617188 2.742188 -2.703125 2.671875 -2.765625 C 2.609375 -2.835938 2.535156 -2.894531 2.453125 -2.9375 C 2.367188 -2.976562 2.285156 -3.007812 2.203125 -3.03125 C 2.117188 -3.050781 2.035156 -3.0625 1.953125 -3.0625 C 1.773438 -3.0625 1.617188 -3.023438 1.484375 -2.953125 C 1.347656 -2.878906 1.234375 -2.785156 1.140625 -2.671875 C 1.054688 -2.554688 0.992188 -2.425781 0.953125 -2.28125 C 0.910156 -2.132812 0.890625 -1.988281 0.890625 -1.84375 C 0.890625 -1.675781 0.914062 -1.515625 0.96875 -1.359375 C 1.019531 -1.210938 1.09375 -1.082031 1.1875 -0.96875 C 1.28125 -0.863281 1.390625 -0.773438 1.515625 -0.703125 C 1.648438 -0.628906 1.796875 -0.59375 1.953125 -0.59375 C 2.035156 -0.59375 2.125 -0.601562 2.21875 -0.625 C 2.3125 -0.644531 2.394531 -0.675781 2.46875 -0.71875 C 2.550781 -0.769531 2.625 -0.832031 2.6875 -0.90625 C 2.757812 -0.976562 2.816406 -1.0625 2.859375 -1.15625 L 3.453125 -0.828125 C 3.390625 -0.679688 3.300781 -0.554688 3.1875 -0.453125 C 3.082031 -0.347656 2.960938 -0.257812 2.828125 -0.1875 C 2.691406 -0.113281 2.546875 -0.0546875 2.390625 -0.015625 C 2.234375 0.015625 2.082031 0.03125 1.9375 0.03125 C 1.675781 0.03125 1.4375 -0.0195312 1.21875 -0.125 C 1 -0.238281 0.8125 -0.382812 0.65625 -0.5625 C 0.5 -0.738281 0.375 -0.941406 0.28125 -1.171875 C 0.195312 -1.398438 0.15625 -1.628906 0.15625 -1.859375 Z M 0.15625 -1.859375 "/></g></g></g><g fill="#ffffff" fill-opacity="1"><g transform="translate(113.478164, 29.274408)"><g><path d="M 2.9375 -0.625 L 2.9375 0 L 0.375 0 L 0.375 -3.671875 L 2.890625 -3.671875 L 2.890625 -3.046875 L 1.09375 -3.046875 L 1.09375 -2.15625 L 2.640625 -2.15625 L 2.640625 -1.578125 L 1.09375 -1.578125 L 1.09375 -0.625 Z M 2.9375 -0.625 "/></g></g></g><g fill="#ffffff" fill-opacity="1"><g transform="translate(88.468662, 23.46975)"><g><path d="M 8.3125 -2.296875 L 3.34375 -2.296875 L 2.40625 0 L -0.140625 0 L 4.625 -10.703125 L 7.078125 -10.703125 L 11.859375 0 L 9.265625 0 Z M 7.53125 -4.171875 L 5.84375 -8.265625 L 4.140625 -4.171875 Z M 7.53125 -4.171875 "/></g></g></g><g fill="#ffffff" fill-opacity="1"><g transform="translate(101.548106, 23.46975)"><g><path d="M 11.078125 -10.703125 L 11.078125 0 L 9.046875 0 L 3.71875 -6.5 L 3.71875 0 L 1.265625 0 L 1.265625 -10.703125 L 3.3125 -10.703125 L 8.640625 -4.203125 L 8.640625 -10.703125 Z M 11.078125 -10.703125 "/></g></g></g><g fill="#ffffff" fill-opacity="1"><g transform="translate(115.269273, 23.46975)"><g><path d="M 4.78125 0.1875 C 3.9375 0.1875 3.117188 0.0703125 2.328125 -0.15625 C 1.535156 -0.382812 0.898438 -0.679688 0.421875 -1.046875 L 1.265625 -2.921875 C 1.722656 -2.585938 2.265625 -2.316406 2.890625 -2.109375 C 3.523438 -1.898438 4.160156 -1.796875 4.796875 -1.796875 C 5.503906 -1.796875 6.023438 -1.898438 6.359375 -2.109375 C 6.691406 -2.328125 6.859375 -2.609375 6.859375 -2.953125 C 6.859375 -3.203125 6.757812 -3.410156 6.5625 -3.578125 C 6.363281 -3.742188 6.109375 -3.878906 5.796875 -3.984375 C 5.484375 -4.085938 5.0625 -4.203125 4.53125 -4.328125 C 3.71875 -4.515625 3.050781 -4.707031 2.53125 -4.90625 C 2.007812 -5.101562 1.5625 -5.414062 1.1875 -5.84375 C 0.820312 -6.269531 0.640625 -6.835938 0.640625 -7.546875 C 0.640625 -8.171875 0.804688 -8.734375 1.140625 -9.234375 C 1.484375 -9.742188 1.992188 -10.144531 2.671875 -10.4375 C 3.347656 -10.726562 4.175781 -10.875 5.15625 -10.875 C 5.832031 -10.875 6.492188 -10.789062 7.140625 -10.625 C 7.796875 -10.46875 8.367188 -10.238281 8.859375 -9.9375 L 8.09375 -8.046875 C 7.101562 -8.609375 6.117188 -8.890625 5.140625 -8.890625 C 4.441406 -8.890625 3.925781 -8.773438 3.59375 -8.546875 C 3.269531 -8.328125 3.109375 -8.035156 3.109375 -7.671875 C 3.109375 -7.304688 3.296875 -7.035156 3.671875 -6.859375 C 4.054688 -6.679688 4.640625 -6.503906 5.421875 -6.328125 C 6.234375 -6.128906 6.898438 -5.929688 7.421875 -5.734375 C 7.941406 -5.546875 8.390625 -5.242188 8.765625 -4.828125 C 9.140625 -4.410156 9.328125 -3.84375 9.328125 -3.125 C 9.328125 -2.519531 9.15625 -1.960938 8.8125 -1.453125 C 8.46875 -0.953125 7.953125 -0.550781 7.265625 -0.25 C 6.585938 0.0390625 5.757812 0.1875 4.78125 0.1875 Z M 4.78125 0.1875 "/></g></g></g><g fill="#ffffff" fill-opacity="1"><g transform="translate(126.392969, 23.46975)"><g><path d="M 6.453125 0.1875 C 5.335938 0.1875 4.332031 -0.0507812 3.4375 -0.53125 C 2.550781 -1.007812 1.851562 -1.671875 1.34375 -2.515625 C 0.84375 -3.359375 0.59375 -4.300781 0.59375 -5.34375 C 0.59375 -6.394531 0.84375 -7.335938 1.34375 -8.171875 C 1.851562 -9.015625 2.550781 -9.675781 3.4375 -10.15625 C 4.332031 -10.632812 5.335938 -10.875 6.453125 -10.875 C 7.554688 -10.875 8.550781 -10.632812 9.4375 -10.15625 C 10.320312 -9.675781 11.019531 -9.015625 11.53125 -8.171875 C 12.039062 -7.335938 12.296875 -6.394531 12.296875 -5.34375 C 12.296875 -4.300781 12.039062 -3.359375 11.53125 -2.515625 C 11.019531 -1.671875 10.320312 -1.007812 9.4375 -0.53125 C 8.550781 -0.0507812 7.554688 0.1875 6.453125 0.1875 Z M 6.453125 -1.921875 C 7.078125 -1.921875 7.644531 -2.066406 8.15625 -2.359375 C 8.664062 -2.648438 9.066406 -3.054688 9.359375 -3.578125 C 9.648438 -4.097656 9.796875 -4.6875 9.796875 -5.34375 C 9.796875 -6.007812 9.648438 -6.601562 9.359375 -7.125 C 9.066406 -7.644531 8.664062 -8.046875 8.15625 -8.328125 C 7.644531 -8.617188 7.078125 -8.765625 6.453125 -8.765625 C 5.816406 -8.765625 5.242188 -8.617188 4.734375 -8.328125 C 4.222656 -8.046875 3.820312 -7.644531 3.53125 -7.125 C 3.25 -6.601562 3.109375 -6.007812 3.109375 -5.34375 C 3.109375 -4.6875 3.25 -4.097656 3.53125 -3.578125 C 3.820312 -3.054688 4.222656 -2.648438 4.734375 -2.359375 C 5.242188 -2.066406 5.816406 -1.921875 6.453125 -1.921875 Z M 6.453125 -1.921875 "/></g></g></g></svg>