<svg width="96" height="96" viewBox="0 0 96 96" fill="none" xmlns="http://www.w3.org/2000/svg">
<g clip-path="url(#clip0_1_207)">
<path d="M48.0015 7.67407C25.7301 7.67407 7.67587 25.729 7.67587 48.0001C7.67587 70.2707 25.7301 88.3249 48.0015 88.3249C70.2714 88.3249 88.3258 70.2707 88.3258 48.0001C88.3256 25.729 70.2714 7.67407 48.0015 7.67407Z" fill="#EDF3FC"/>
<path d="M48.0015 0.1875C21.6371 0.1875 0.1875 21.6358 0.1875 48C0.1875 74.3634 21.6371 95.8125 48.0015 95.8125C74.3646 95.8125 95.8125 74.3634 95.8125 48C95.8125 21.6358 74.3646 0.1875 48.0015 0.1875ZM48.0015 94.2799C22.4816 94.2799 1.72012 73.518 1.72012 48C1.72012 22.4805 22.4818 1.719 48.0015 1.719C73.5199 1.719 94.2803 22.4807 94.2803 48C94.2803 73.518 73.5197 94.2799 48.0015 94.2799Z" fill="#EDF3FC"/>
<path d="M61.3127 51.3027C58.8169 51.3027 56.7864 53.333 56.7864 55.8284V60.4629H62.7334C63.0188 60.0297 63.3023 59.5848 63.5822 59.1181C64.3999 57.755 65.1086 56.3071 65.7246 54.8191C65.2645 52.8084 63.4618 51.3027 61.3127 51.3027Z" fill="#330D84"/>
<path d="M67.9487 33.4146L49.2049 24.6527C48.8222 24.4736 48.4172 24.3831 48 24.3831C47.5821 24.3831 47.1775 24.4734 46.7959 24.6523L28.051 33.4146C26.9629 33.9229 26.2862 35.1109 26.3661 36.3707C26.7045 41.6625 27.9401 51.6557 32.4173 59.1182C37.9873 68.4021 44.7351 70.898 47.3777 71.5393C47.7846 71.6381 48.2149 71.6392 48.6236 71.5393C49.3421 71.3647 50.3661 71.0512 51.5861 70.503V62.1C51.5861 61.1961 52.3195 60.4631 53.224 60.4631H54.1472V55.8287C54.1472 51.878 57.3617 48.6637 61.3127 48.6637C63.6034 48.6637 65.6447 49.7452 66.9574 51.423C68.7564 45.7479 69.4035 39.9714 69.6338 36.3705C69.7138 35.1112 69.0366 33.9232 67.9487 33.4146Z" fill="#330D84"/>
<path d="M62.7334 60.4628H65.8393V55.8284C65.8393 55.4813 65.7988 55.144 65.7246 54.8191C65.1086 56.3071 64.3999 57.755 63.5822 59.1181C63.3022 59.5848 63.0187 60.0297 62.7334 60.4628Z" fill="#6857E5"/>
<path d="M69.0857 30.9806L50.3426 22.2189C48.8603 21.5257 47.1375 21.5264 45.6581 22.2185L26.9136 30.9804C24.8327 31.9528 23.5356 34.1876 23.685 36.5413C24.0392 42.0764 25.3444 52.5502 30.1142 60.5006C36.2053 70.6537 43.7732 73.4278 46.7453 74.1508C47.1561 74.2488 47.5787 74.3002 47.9998 74.3002C48.4217 74.3002 48.8436 74.249 49.2555 74.1496C49.8872 73.9963 50.7272 73.7493 51.7159 73.3593C51.6323 73.1626 51.5859 72.9463 51.5859 72.7192V70.5026C50.3659 71.0508 49.3419 71.3645 48.6234 71.5389C48.2147 71.6388 47.7844 71.6377 47.3775 71.5389C44.7349 70.8976 37.9871 68.4014 32.4171 59.1178C27.9398 51.6551 26.7041 41.6619 26.3659 36.3703C26.286 35.1104 26.9629 33.9224 28.0508 33.4141L46.7957 24.6519C47.1773 24.4732 47.5819 24.3826 47.9998 24.3826C48.417 24.3826 48.822 24.473 49.2047 24.6523L67.9485 33.4141C69.0366 33.9228 69.7136 35.1108 69.6338 36.3699C69.4033 39.9708 68.7563 45.7475 66.9574 51.4224C67.7938 52.4913 68.3331 53.8019 68.4518 55.2311C71.1591 48.3723 72.0347 40.9154 72.3148 36.5407C72.4641 34.1883 71.1669 31.9537 69.0857 30.9806Z" fill="#6857E5"/>
<path d="M43.5613 17.1363C41.1797 16.5404 39.3238 14.6826 38.7234 12.304L38.6231 11.8977L38.5221 12.304C37.9243 14.6828 36.0666 16.5406 33.6844 17.1363L33.2809 17.2392L33.6844 17.3425C36.0666 17.9373 37.9243 19.796 38.5221 22.1753L38.6231 22.5816L38.7234 22.1753C39.3238 19.796 41.1797 17.9371 43.5613 17.3425L43.9648 17.2392L43.5613 17.1363Z" fill="#330D84"/>
<path d="M26.9651 27.6708C25.3775 27.2736 24.1406 26.0352 23.7405 24.4497L23.6737 24.179L23.6064 24.4497C23.208 26.0352 21.9697 27.2736 20.3818 27.6708L20.1127 27.7394L20.3818 27.8082C21.9697 28.2046 23.208 29.4436 23.6064 31.0296L23.6737 31.3004L23.7405 31.0296C24.1406 29.4436 25.3775 28.2048 26.9651 27.8082L27.234 27.7394L26.9651 27.6708Z" fill="#330D84"/>
<path d="M78.4883 56.2028C76.9945 55.8286 75.8278 54.6617 75.4541 53.1681L75.3893 52.9141L75.3248 53.1681C74.9513 54.6619 73.7845 55.8287 72.2886 56.2028L72.0345 56.2669L72.2886 56.3314C73.7846 56.7053 74.9513 57.8721 75.3248 59.3659L75.3893 59.6215L75.4541 59.3659C75.8276 57.8721 76.9945 56.7055 78.4883 56.3314L78.7446 56.2669L78.4883 56.2028Z" fill="#FFBE1B"/>
<path d="M43.4515 77.5954C41.3451 77.0685 39.7 75.4219 39.1716 73.3155L39.0823 72.957L38.992 73.3155C38.4649 75.4219 36.8196 77.0685 34.7117 77.5954L34.3532 77.6869L34.7117 77.7765C36.8196 78.3036 38.4651 79.9489 38.992 82.0553L39.0823 82.4153L39.1716 82.0553C39.7 79.9489 41.3451 78.3034 43.4515 77.7765L43.8115 77.6869L43.4515 77.5954Z" fill="#5D8EF9"/>
<path d="M51.3576 79.352C50.0187 79.0162 48.9731 77.9696 48.637 76.6314L48.5805 76.4028L48.5226 76.6314C48.1879 77.9696 47.1424 79.0162 45.8027 79.352L45.5749 79.4092L45.8027 79.4664C47.1424 79.8018 48.1879 80.8473 48.5226 82.1855L48.5805 82.4156L48.637 82.1855C48.9731 80.8473 50.0187 79.8018 51.3576 79.4664L51.5862 79.4092L51.3576 79.352Z" fill="#5D8EF9"/>
<path d="M61.3127 48.6636C57.3617 48.6636 54.1472 51.8779 54.1472 55.8285V60.4629H56.7864V55.8285C56.7864 53.3331 58.8169 51.3028 61.3127 51.3028C63.8089 51.3028 65.8395 53.3331 65.8395 55.8285V60.4629H68.4786V55.8285C68.4786 51.8779 65.2639 48.6636 61.3127 48.6636Z" fill="#FFBE1B"/>
<path d="M69.4022 60.4629H53.2241C52.3196 60.4629 51.5863 61.1958 51.5863 62.0998V72.7196C51.5863 73.6241 52.3196 74.3572 53.2241 74.3572H69.4022C70.3065 74.3572 71.0396 73.6241 71.0396 72.7196V62.0998C71.0396 61.1958 70.3065 60.4629 69.4022 60.4629Z" fill="#8AC9F9"/>
<path d="M57.9958 36.1428C56.8322 35.1657 55.0958 35.314 54.1176 36.4782L45.4253 46.8142L41.874 43.3792C40.7828 42.3226 39.0396 42.3513 37.9813 43.4437C36.9248 44.5368 36.9534 46.2789 38.0458 47.3362L43.7192 52.8232C44.2341 53.3208 44.9201 53.5974 45.6326 53.5974C45.6801 53.5974 45.7275 53.5962 45.7749 53.5934C46.5369 53.5542 47.2478 53.2004 47.7392 52.6164L58.3303 40.0212C59.3091 38.8578 59.1596 37.1212 57.9958 36.1428Z" fill="white"/>
</g>
<defs>
<clipPath id="clip0_1_207">
<rect width="96" height="96" fill="white"/>
</clipPath>
</defs>
</svg>
