<svg width="96" height="96" viewBox="0 0 96 96" fill="none" xmlns="http://www.w3.org/2000/svg">
<g clip-path="url(#clip0_1_1604)">
<path d="M48.0008 7.67383C25.7293 7.67383 7.67514 25.729 7.67514 48.0004C7.67514 70.2707 25.7293 88.3255 48.0008 88.3255C70.2707 88.3255 88.3257 70.2707 88.3257 48.0004C88.3257 25.729 70.2707 7.67383 48.0008 7.67383Z" fill="#EDF3FC"/>
<path d="M48.0007 0.1875C21.6364 0.1875 0.1875 21.6362 0.1875 48.0004C0.1875 74.3642 21.6364 95.8125 48.0007 95.8125C74.3646 95.8125 95.8125 74.3642 95.8125 48.0004C95.8125 21.6362 74.3646 0.1875 48.0007 0.1875ZM48.0007 94.2808C22.4811 94.2808 1.71994 73.5193 1.71994 48.0004C1.71994 22.4805 22.4812 1.71919 48.0007 1.71919C73.5199 1.71919 94.2803 22.4807 94.2803 48.0004C94.2803 73.5193 73.5197 94.2808 48.0007 94.2808Z" fill="#EDF3FC"/>
<path d="M75.9416 28.2847C73.9378 27.783 72.3742 26.2188 71.8721 24.2154L71.7861 23.8738L71.7004 24.2154C71.1982 26.219 69.6341 27.783 67.6299 28.2847L67.2891 28.3708L67.6299 28.4565C69.6341 28.9582 71.1982 30.5227 71.7004 32.5262L71.7861 32.8678L71.8721 32.5262C72.3742 30.5225 73.938 28.9582 75.9416 28.4565L76.2838 28.3708L75.9416 28.2847Z" fill="#FFBE1B"/>
<path d="M29.1568 64.5051C26.5376 63.8489 24.4937 61.8036 23.8376 59.1859L23.7249 58.7395L23.6126 59.1859C22.9566 61.8036 20.9121 63.8489 18.2921 64.5051L17.8464 64.6176L18.2921 64.7294C20.9121 65.3856 22.9566 67.4303 23.6126 70.0493L23.7249 70.4961L23.8376 70.0493C24.4937 67.4303 26.5376 65.3856 29.1568 64.7294L29.6042 64.6176L29.1568 64.5051Z" fill="#330D84"/>
<path d="M28.3946 33.2832C26.163 32.724 24.4217 30.982 23.8624 28.7509L23.7666 28.3708L23.6709 28.7509C23.1122 30.9818 21.3699 32.7238 19.1377 33.2832L18.7581 33.3788L19.1377 33.474C21.3697 34.0335 23.112 35.7752 23.6709 38.007L23.7666 38.3875L23.8624 38.007C24.4215 35.7754 26.163 34.0337 28.3946 33.474L28.7758 33.3788L28.3946 33.2832Z" fill="#5D8EF9"/>
<path d="M30.728 23.8066C29.1782 23.4185 27.9688 22.2083 27.5805 20.6594L27.5139 20.395L27.4475 20.6594C27.0594 22.2085 25.8495 23.4185 24.2992 23.8066L24.0356 23.8731L24.2992 23.9391C25.8495 24.328 27.0594 25.5376 27.4475 27.0875L27.5139 27.3518L27.5805 27.0875C27.9688 25.5376 29.1782 24.328 30.728 23.9391L30.9928 23.8731L30.728 23.8066Z" fill="#5D8EF9"/>
<path d="M49.9032 34.0137H62.5573V24.9613C62.5573 22.9849 60.9546 21.3816 58.9772 21.3816H37.0232C35.0457 21.3816 33.4425 22.9849 33.4425 24.9613V70.0997C33.4425 72.0777 35.0457 73.6806 37.0232 73.6806H58.9774C60.9548 73.6806 62.5575 72.0777 62.5575 70.0997V54.5974H59.7426L53.2975 60.933V54.5974H49.9032C47.3104 54.5974 45.2083 52.495 45.2083 49.9026V38.7094C45.2083 36.1165 47.3104 34.0137 49.9032 34.0137Z" fill="#330D84"/>
<path d="M75.8252 34.0137H49.9032C47.3104 34.0137 45.2083 36.1165 45.2083 38.7094V49.9026C45.2083 52.495 47.3104 54.5974 49.9032 54.5974H53.2975V60.9331L59.7426 54.5974H75.8252C78.417 54.5974 80.5202 52.495 80.5202 49.9026V38.7094C80.5202 36.1165 78.4172 34.0137 75.8252 34.0137Z" fill="#FFBE1B"/>
<path d="M50.9216 68.0693H45.0784C44.5217 68.0693 44.0702 68.5208 44.0702 69.0771V71.1155C44.0702 71.6723 44.5217 72.1237 45.0784 72.1237H50.9216C51.4785 72.1237 51.9298 71.6723 51.9298 71.1155V69.0771C51.9298 68.5208 51.4785 68.0693 50.9216 68.0693Z" fill="#5932AE"/>
<path d="M51.3756 22.448H44.6246C44.4289 22.448 44.2701 22.607 44.2701 22.8022V23.5192C44.2701 23.7151 44.4289 23.8737 44.6246 23.8737H51.3756C51.5713 23.8737 51.73 23.7151 51.73 23.5192V22.8022C51.73 22.6068 51.5713 22.448 51.3756 22.448Z" fill="#5932AE"/>
<path d="M49.9032 34.0137H60.4995V28.6088C60.4995 26.632 58.8966 25.0291 56.9194 25.0291H39.0812C37.1036 25.0291 35.5003 26.632 35.5003 28.6088V63.3677C35.5003 65.3453 37.1036 66.9486 39.0812 66.9486H56.9194C58.8966 66.9486 60.4995 65.3453 60.4995 63.3677V54.5976H59.7426L53.2975 60.9332V54.5976H49.9032C47.3104 54.5976 45.2083 52.4952 45.2083 49.9028V38.7094C45.2083 36.1165 47.3104 34.0137 49.9032 34.0137Z" fill="#8AC9F9"/>
<path d="M53.04 39.686C54.012 39.686 54.834 39.776 55.506 39.956C56.178 40.136 56.712 40.484 57.108 41C57.516 41.504 57.72 42.23 57.72 43.178C57.72 43.598 57.654 44.03 57.522 44.474C57.402 44.906 57.246 45.284 57.054 45.608C56.874 45.932 56.712 46.142 56.568 46.238C56.4 46.358 56.028 46.454 55.452 46.526C54.876 46.586 54.198 46.616 53.418 46.616C53.142 46.616 52.716 46.604 52.14 46.58V50H48.9V39.74C50.16 39.704 51.54 39.686 53.04 39.686ZM54.39 44.312C54.51 44.156 54.57 43.844 54.57 43.376C54.57 42.764 54.438 42.332 54.174 42.08C53.922 41.828 53.478 41.702 52.842 41.702C52.626 41.702 52.392 41.72 52.14 41.756V44.492C52.26 44.504 52.494 44.51 52.842 44.51C53.766 44.51 54.282 44.444 54.39 44.312ZM64.5783 47.75H61.5903L61.0503 50H57.7383L61.0503 39.74H65.2803L68.4483 50H65.1183L64.5783 47.75ZM63.0663 41.954L62.0043 45.752H64.1463L63.1383 41.954H63.0663ZM73.695 46.724V50H70.455V46.76L66.999 39.74H70.293L71.661 43.07C71.805 43.406 71.937 43.76 72.057 44.132H72.093C72.225 43.724 72.357 43.358 72.489 43.034L73.839 39.74H77.115L73.695 46.724Z" fill="#330D84"/>
</g>
<defs>
<clipPath id="clip0_1_1604">
<rect width="96" height="96" fill="white"/>
</clipPath>
</defs>
</svg>
