<svg width="630" height="462" viewBox="0 0 630 462" fill="none" xmlns="http://www.w3.org/2000/svg">
<path d="M315 462C488.97 462 630 444.772 630 423.519C630 402.267 488.97 385.039 315 385.039C141.03 385.039 0 402.267 0 423.519C0 444.772 141.03 462 315 462Z" fill="#DCF6F9"/>
<path d="M348.431 14.8513C348.431 14.8513 356.653 -1.20081 377.459 0.811209C398.265 2.82323 395.785 18.9114 405.691 17.4034C415.597 15.8953 429.469 17.4034 432.437 27.4595C435.406 37.5155 448.785 31.9835 449.281 40.5315C449.778 49.0796 433.908 55.1157 415.597 47.5717C397.287 40.0276 388.355 53.4317 362.598 51.0037C336.841 48.5756 333.648 45.5596 318.405 47.0716C303.161 48.5837 303.52 37.9835 310.454 30.9435C317.388 23.9034 345.458 24.5714 348.431 14.8513Z" fill="#DDF8FB" fill-opacity="0.31"/>
<path d="M69.0152 31.5832C69.0152 31.5832 74.8374 20.2111 89.5763 21.6351C104.315 23.0591 102.561 34.4592 109.582 33.3912C116.602 32.3232 126.426 33.3912 128.531 40.5153C130.636 47.6394 140.112 43.7153 140.463 49.7794C140.814 55.8434 129.583 60.1075 116.598 54.7674C103.614 49.4274 97.2828 58.9155 79.0513 57.1954C60.8199 55.4754 58.5533 53.3394 47.7406 54.3954C36.9278 55.4514 37.1959 47.9594 42.1075 42.9713C47.0192 37.9833 66.9062 38.4713 69.0152 31.5832Z" fill="#DDF8FB" fill-opacity="0.31"/>
<path d="M469.362 72.7441C469.362 72.7441 474.486 62.744 487.467 63.988C500.447 65.232 498.898 75.2801 505.075 74.3361C511.252 73.3921 519.905 74.3361 521.758 80.6082C523.61 86.8802 531.951 83.4322 532.263 88.7642C532.574 94.0963 522.684 97.8603 511.252 93.1643C499.821 88.4682 494.263 96.8163 478.199 95.3043C462.136 93.7923 460.141 91.9082 450.633 92.8483C441.125 93.7883 441.342 87.1722 445.678 82.7802C450.015 78.3881 467.509 78.8081 469.362 72.7441Z" fill="#DDF8FB" fill-opacity="0.31"/>
<path d="M140.731 89.9628C140.731 89.9628 145.008 81.6108 155.836 82.6548C166.665 83.6988 165.376 92.0788 170.532 91.2908C175.688 90.5028 182.906 91.2908 184.451 96.5269C185.996 101.763 192.961 98.8829 193.218 103.327C193.474 107.771 185.227 110.927 175.688 106.991C166.148 103.055 161.497 110.039 148.094 108.779C134.692 107.519 133.028 105.943 125.093 106.731C117.158 107.519 117.347 101.999 120.958 98.3309C124.569 94.6629 139.182 95.0229 140.731 89.9628Z" fill="#DDF8FB" fill-opacity="0.31"/>
<path d="M152.079 387.759H108.785C103.314 387.759 98.8633 383.635 98.8633 378.559V196.905C98.8633 191.833 103.314 187.705 108.785 187.705H211.922C217.389 187.705 221.84 191.829 221.84 196.905V222.757C221.84 227.829 217.389 231.957 211.922 231.957H171.517C166.27 231.957 162.001 235.902 162.001 240.758V256.834C162.001 261.678 166.27 265.634 171.517 265.634H207.452C212.923 265.634 217.374 269.758 217.374 274.834V300.978C217.374 306.054 212.923 310.178 207.452 310.178H171.517C166.27 310.178 162.001 314.122 162.001 318.978V378.579C162.001 383.635 157.551 387.759 152.079 387.759ZM108.785 188.117C103.538 188.117 99.2694 192.061 99.2694 196.917V378.571C99.2694 383.419 103.538 387.371 108.785 387.371H152.079C157.326 387.371 161.595 383.431 161.595 378.571V318.97C161.595 313.898 166.046 309.77 171.517 309.77H207.452C212.699 309.77 216.968 305.83 216.968 300.97V274.826C216.968 269.978 212.699 266.026 207.452 266.026H171.517C166.046 266.026 161.595 261.898 161.595 256.826V240.746C161.595 235.674 166.046 231.545 171.517 231.545H211.922C217.169 231.545 221.438 227.605 221.438 222.745V196.905C221.438 192.061 217.169 188.105 211.922 188.105L108.785 188.117Z" fill="#333333"/>
<path d="M369.411 387.759H325.778C319.774 387.759 314.78 383.587 314.161 378.051L311.528 354.495C311.476 354.179 311.311 353.893 311.066 353.692C310.82 353.491 310.51 353.388 310.195 353.403H290.592C290.274 353.39 289.963 353.496 289.717 353.701C289.471 353.906 289.309 354.196 289.26 354.515L287.009 378.691C286.528 383.863 281.943 387.759 276.365 387.759H236.079C234.305 387.782 232.548 387.415 230.926 386.685C229.305 385.954 227.859 384.877 226.685 383.527C225.702 382.399 224.975 381.067 224.554 379.623C224.133 378.18 224.029 376.66 224.249 375.171L250.845 196.769L251.046 196.801L250.845 196.769C251.634 191.597 256.447 187.697 262.08 187.697H339.302C345.495 187.697 350.825 191.981 351.7 197.665L379.325 377.151C379.515 378.401 379.432 379.679 379.083 380.893C378.733 382.107 378.126 383.229 377.303 384.179C376.32 385.319 375.106 386.229 373.744 386.847C372.381 387.465 370.903 387.776 369.411 387.759V387.759ZM290.572 352.991H310.175C310.591 352.976 310.997 353.117 311.316 353.386C311.636 353.655 311.847 354.034 311.91 354.451L314.543 378.003C315.138 383.331 319.959 387.347 325.758 387.347H369.391C370.824 387.366 372.244 387.07 373.553 386.479C374.862 385.888 376.03 385.016 376.975 383.923C377.761 383.018 378.341 381.948 378.674 380.791C379.007 379.633 379.085 378.415 378.903 377.223L351.278 197.741C350.434 192.253 345.278 188.117 339.283 188.117H262.06C256.628 188.117 251.969 191.869 251.228 196.845L224.628 375.247C224.417 376.677 224.518 378.137 224.923 379.523C225.328 380.91 226.028 382.189 226.973 383.271C228.108 384.576 229.508 385.617 231.076 386.323C232.644 387.029 234.344 387.382 236.059 387.359H276.326C281.715 387.359 286.122 383.623 286.575 378.667L288.826 354.491C288.877 354.06 289.089 353.665 289.417 353.386C289.745 353.108 290.165 352.966 290.592 352.991H290.572ZM304.822 305.71H295.263C295.018 305.712 294.775 305.664 294.548 305.567C294.322 305.471 294.117 305.329 293.947 305.15C293.802 304.997 293.69 304.815 293.618 304.617C293.545 304.418 293.513 304.206 293.525 303.994C294.08 294.422 295.224 279.634 296.323 265.33C297.246 253.33 298.204 240.958 298.795 231.89C298.858 231.468 299.068 231.082 299.387 230.804C299.706 230.525 300.113 230.372 300.533 230.372C300.954 230.372 301.361 230.525 301.68 230.804C301.999 231.082 302.209 231.468 302.272 231.89C303.297 245.09 304.881 273.73 305.93 292.69C306.17 297.002 306.383 300.87 306.561 304.026C306.572 304.237 306.54 304.449 306.468 304.647C306.395 304.845 306.283 305.026 306.139 305.178C305.968 305.35 305.766 305.485 305.543 305.576C305.32 305.668 305.082 305.713 304.842 305.71H304.822ZM300.533 230.774C300.21 230.758 299.892 230.867 299.644 231.08C299.396 231.292 299.237 231.591 299.197 231.918C298.606 240.986 297.652 253.378 296.73 265.366C295.626 279.662 294.486 294.45 293.927 304.018C293.919 304.175 293.944 304.331 293.998 304.477C294.052 304.624 294.135 304.758 294.242 304.87C294.375 305.008 294.534 305.118 294.709 305.192C294.885 305.266 295.073 305.304 295.263 305.302H304.822C305.012 305.304 305.201 305.266 305.376 305.192C305.551 305.118 305.71 305.008 305.843 304.87C305.95 304.758 306.033 304.625 306.087 304.479C306.141 304.334 306.166 304.178 306.159 304.022C305.981 300.866 305.764 296.998 305.528 292.686C304.479 273.738 302.895 245.086 301.866 231.886C301.819 231.57 301.659 231.282 301.417 231.077C301.175 230.872 300.868 230.764 300.553 230.774H300.533Z" fill="#333333"/>
<path d="M528.618 409.327C526.074 409.331 523.569 408.692 521.33 407.467L493.602 392.239C490.797 390.725 487.587 390.164 484.445 390.639C478.285 391.52 472.071 391.946 465.851 391.915C438.372 391.915 419.186 383.167 407.191 365.167C401.325 356.367 397.127 345.439 394.36 331.771C391.719 318.735 390.418 303.463 390.418 285.078C390.418 267.77 391.715 253.366 394.36 241.042C397.174 228.022 401.455 217.594 407.439 209.166C419.813 191.742 439.641 183.273 468.058 183.273C496.216 183.273 515.925 191.742 528.315 209.166C534.385 217.71 538.741 228.298 541.619 241.542C544.378 254.218 545.715 269.038 545.715 286.854C545.715 314.455 542.64 335.471 536.321 351.123C533.628 357.783 536.471 365.259 543.081 368.891L548.352 371.791C549.85 372.583 551.159 373.7 552.185 375.062C553.211 376.425 553.929 378 554.288 379.675C554.602 381.243 554.567 382.862 554.187 384.415C553.806 385.968 553.09 387.415 552.089 388.651L540.081 403.895C538.69 405.61 536.939 406.988 534.956 407.928C532.972 408.868 530.807 409.346 528.618 409.327V409.327ZM486.617 390.059C489.121 390.053 491.588 390.679 493.795 391.879L521.523 407.104C527.708 410.5 535.564 409.007 539.802 403.631L551.805 388.387C552.769 387.199 553.461 385.807 553.828 384.313C554.196 382.819 554.23 381.26 553.929 379.751C553.579 378.136 552.884 376.619 551.893 375.305C550.902 373.992 549.639 372.916 548.194 372.151L542.924 369.255C536.128 365.519 533.211 357.827 535.982 350.967C542.289 335.367 545.344 314.395 545.344 286.854C545.344 269.07 544.008 254.274 541.26 241.63C538.39 228.43 534.062 217.902 528.019 209.406C515.712 192.098 496.109 183.685 468.102 183.685C439.826 183.685 420.105 192.086 407.814 209.406C401.857 217.806 397.6 228.166 394.805 241.13C392.148 253.422 390.863 267.798 390.863 285.078C390.863 303.431 392.145 318.679 394.778 331.687C397.537 345.287 401.716 356.179 407.55 364.935C419.462 382.815 438.541 391.503 465.89 391.503C472.088 391.532 478.28 391.108 484.417 390.235C485.145 390.122 485.881 390.064 486.617 390.059V390.059ZM468.09 349.259C459.382 349.259 458.282 342.127 458.282 285.658C458.282 230.55 460.679 225.914 468.09 225.914C476.975 225.914 477.894 231.514 477.894 285.658C477.897 342.715 476.888 349.255 468.094 349.255L468.09 349.259ZM468.09 226.334C460.994 226.334 458.688 230.934 458.688 285.666C458.688 312.399 458.964 329.639 460.368 338.651C461.708 347.271 464.018 348.847 468.09 348.847C476.522 348.847 477.487 342.351 477.487 285.646C477.491 231.866 476.612 226.33 468.094 226.33L468.09 226.334Z" fill="#333333"/>
<path d="M102.471 399.423H145.769C148.346 399.422 150.818 398.383 152.64 396.533C154.462 394.683 155.486 392.175 155.486 389.559V324.195C155.486 321.579 156.51 319.071 158.332 317.221C160.154 315.371 162.625 314.332 165.203 314.331H201.141C202.417 314.331 203.681 314.076 204.86 313.58C206.039 313.085 207.11 312.358 208.012 311.443C208.914 310.527 209.63 309.44 210.119 308.244C210.607 307.048 210.858 305.765 210.858 304.471V275.802C210.858 273.187 209.834 270.678 208.012 268.829C206.19 266.979 203.719 265.939 201.141 265.938H165.203C162.626 265.938 160.154 264.899 158.332 263.05C156.51 261.201 155.486 258.693 155.486 256.078V238.454C155.486 235.838 156.51 233.33 158.332 231.48C160.154 229.631 162.625 228.591 165.203 228.59H205.615C206.892 228.59 208.156 228.336 209.335 227.84C210.514 227.345 211.586 226.619 212.489 225.703C213.392 224.788 214.108 223.7 214.596 222.504C215.085 221.307 215.336 220.025 215.336 218.73V190.385C215.336 189.09 215.085 187.808 214.596 186.611C214.108 185.415 213.392 184.328 212.489 183.412C211.586 182.496 210.514 181.77 209.335 181.275C208.156 180.78 206.892 180.525 205.615 180.525H102.471C99.8937 180.525 97.4221 181.564 95.5999 183.413C93.7776 185.262 92.7539 187.77 92.7539 190.385V389.559C92.7539 392.175 93.7775 394.683 95.5997 396.533C97.4218 398.383 99.8933 399.422 102.471 399.423V399.423Z" fill="url(#paint0_linear_2391_8037)"/>
<path d="M244.736 190.266L218.135 385.868C217.906 387.554 218.036 389.271 218.515 390.902C218.995 392.533 219.814 394.041 220.916 395.325C222.018 396.608 223.378 397.637 224.905 398.342C226.433 399.047 228.091 399.412 229.768 399.412H270.035C272.663 399.412 275.196 398.411 277.132 396.607C279.069 394.804 280.268 392.329 280.493 389.672L282.748 363.163C282.78 362.774 282.956 362.411 283.24 362.146C283.524 361.882 283.896 361.735 284.281 361.735H303.884C304.266 361.736 304.633 361.88 304.916 362.139C305.199 362.398 305.378 362.755 305.418 363.139L308.051 388.964C308.343 391.833 309.674 394.489 311.786 396.42C313.898 398.35 316.64 399.416 319.483 399.412H363.116C364.521 399.412 365.91 399.105 367.189 398.513C368.467 397.921 369.605 397.057 370.526 395.98C371.447 394.903 372.13 393.638 372.527 392.27C372.924 390.902 373.027 389.463 372.829 388.052L345.204 191.25C344.785 188.27 343.321 185.544 341.081 183.571C338.84 181.599 335.974 180.513 333.007 180.514H255.785C253.093 180.51 250.491 181.496 248.459 183.289C246.428 185.081 245.105 187.56 244.736 190.266ZM287.435 307.799C288.464 288.467 291.408 250.494 292.705 228.742C292.728 228.345 292.9 227.971 293.186 227.698C293.472 227.425 293.85 227.273 294.243 227.274V227.274C294.632 227.275 295.006 227.425 295.29 227.695C295.575 227.964 295.748 228.332 295.776 228.726C297.033 246.43 299.095 288.859 300.069 307.803C300.079 308.014 300.047 308.225 299.974 308.424C299.901 308.622 299.79 308.804 299.646 308.957C299.502 309.11 299.329 309.232 299.138 309.316C298.946 309.399 298.74 309.443 298.531 309.443H288.972C288.764 309.443 288.559 309.401 288.368 309.318C288.177 309.235 288.004 309.114 287.861 308.962C287.717 308.81 287.605 308.63 287.532 308.433C287.459 308.236 287.426 308.025 287.435 307.815V307.799Z" fill="url(#paint1_linear_2391_8037)"/>
<path d="M541.98 382.327L536.706 379.127C533.461 377.17 530.998 374.119 529.745 370.507C528.493 366.894 528.532 362.95 529.855 359.363C536.438 341.495 539.232 318.118 539.232 288.962C539.232 213.29 518.734 175.617 461.777 175.617C403.831 175.617 384.322 213.942 384.322 287.014C384.322 364.959 403.847 403.931 459.538 403.931C465.752 403.966 471.959 403.5 478.101 402.539C481.306 402.014 484.591 402.645 487.384 404.323L515.112 421.019C518.12 422.831 521.686 423.438 525.112 422.724C528.538 422.009 531.578 420.024 533.639 417.155L545.646 400.439C546.652 399.031 547.359 397.426 547.72 395.726C548.082 394.025 548.09 392.267 547.745 390.564C547.4 388.86 546.71 387.248 545.717 385.829C544.724 384.411 543.452 383.219 541.98 382.327ZM461.777 357.199C453.456 357.199 452.175 350.055 452.175 287.698C452.175 227.942 454.418 222.422 461.777 222.422C470.422 222.422 471.38 228.266 471.38 287.698C471.38 349.731 470.422 357.199 461.777 357.199V357.199Z" fill="url(#paint2_linear_2391_8037)"/>
<path d="M44.1777 281.742C41.919 281.218 39.5341 278.294 39.4198 274.258C39.3291 271.058 40.8705 268.718 43.5392 267.986C49.8266 266.254 51.1077 263.53 51.1195 263.502L51.4743 263.662C51.423 263.778 50.1341 266.578 43.6417 268.366C42.4591 268.694 39.6997 269.922 39.8101 274.246C39.8928 277.23 41.6313 280.794 44.3236 281.37L44.2409 281.77L44.1777 281.742Z" fill="#501506"/>
<path d="M62.8778 253.182C62.8778 253.182 59.6652 250.414 56.8348 250.83C54.0045 251.246 52.3568 253.39 52.4987 254.902C52.6406 256.414 62.8778 253.182 62.8778 253.182Z" fill="#FF7B69"/>
<path d="M70.707 258.265C70.2537 253.409 65.9018 251.865 58.0928 253.293C51.4822 254.493 46.0305 255.753 46.4878 260.605C46.945 265.457 52.7357 268.869 59.4212 268.205C66.1067 267.541 71.1643 263.125 70.707 258.265Z" fill="#FF4B42"/>
<path d="M60.5721 256.63C60.5721 256.63 64.0016 253.642 66.3589 257.078C69.9066 262.278 63.9937 266.358 66.4377 268.486C68.8029 270.539 71.4085 269.17 70.5688 271.983C69.7292 274.795 75.6934 273.667 73.2809 279.151C70.8685 284.635 47.9382 282.667 44.7847 280.687C42.5259 279.267 38.3318 273.543 45.1277 268.122C47.6742 266.09 50.7843 263.722 52.1207 262.006C54.3518 259.134 54.5843 257.338 60.5721 256.63Z" fill="#501506"/>
<path d="M74.2343 281.311C74.5773 281.515 88.4844 293.855 88.512 303.711C88.512 308.223 84.7908 313.675 81.0223 312.607C74.6561 310.815 67.3359 303.043 67.3359 303.043L74.2343 281.311Z" fill="#FCBDB6"/>
<path d="M44.6734 284.315C44.6734 284.315 48.0319 274.735 59.9839 275.171C71.9358 275.607 75.6964 291.171 81.9325 325.075C81.9325 325.075 56.6608 324.091 42.9074 327.563C42.9074 327.563 44.3068 317.395 43.6327 310.683C42.6551 300.971 41.5711 292.575 44.6734 284.315Z" fill="#FF4B42"/>
<path d="M36.2812 283.739L44.7485 289.239C44.7485 289.239 66.5199 291.451 72.2988 290.387C78.0776 289.323 78.9764 285.011 78.9764 285.011C74.942 280.006 69.2844 276.62 63.0155 275.459C60.2587 275.077 57.4675 275.021 54.698 275.291C44.3622 276.423 36.2812 283.739 36.2812 283.739Z" fill="#FF4B42"/>
<path d="M36.1593 283.931C35.8636 284.795 38.0789 286.415 41.1063 287.531C44.1337 288.647 46.8221 288.883 47.1178 288.015C47.4134 287.147 45.1981 285.531 42.1707 284.415C39.1433 283.299 36.451 283.067 36.1593 283.931Z" fill="#333333"/>
<path d="M55.3759 276.365C54.8595 275.565 56.0538 274.789 56.3652 273.657L57.3507 270.113L57.6386 269.085L59.3178 263.033L59.6726 269.033L59.8854 272.633L59.9445 273.645C59.98 274.273 60.1731 274.737 60.6225 274.977C60.8554 275.097 61.0603 275.267 61.2234 275.474C61.3866 275.68 61.5043 275.92 61.5686 276.177C61.7184 276.829 61.6711 277.637 60.7803 278.069C58.7541 278.993 56.2155 277.617 55.3759 276.365Z" fill="#FCBDB6"/>
<path d="M57.3306 270.018C57.3306 270.05 57.3305 270.082 57.3502 270.114C57.7444 272.006 59.8731 272.63 59.8731 272.63L59.6603 269.03C59.0138 268.886 58.1032 268.766 57.6263 269.094C57.4887 269.198 57.3864 269.343 57.3334 269.509C57.2804 269.674 57.2795 269.852 57.3306 270.018V270.018Z" fill="#F9A6A0"/>
<path d="M60.6092 270.814C63.6435 270.406 65.7007 266.996 65.204 263.199C64.7073 259.401 61.845 256.654 58.8106 257.063C55.7763 257.471 53.719 260.881 54.2157 264.678C54.7123 268.476 57.5748 271.223 60.6092 270.814Z" fill="#FCBDB6"/>
<path d="M60.2486 263.943C60.2665 263.935 60.2823 263.923 60.2946 263.908C60.307 263.893 60.3155 263.875 60.3195 263.855C60.3237 263.839 60.3247 263.822 60.3223 263.805C60.32 263.789 60.3145 263.773 60.3061 263.758C60.2977 263.744 60.2865 263.731 60.2733 263.721C60.26 263.711 60.2449 263.703 60.2289 263.699C59.9395 263.605 59.6274 263.611 59.3419 263.717C59.0563 263.823 58.8136 264.022 58.6521 264.283C58.633 264.311 58.6253 264.345 58.6305 264.379C58.6356 264.412 58.6532 264.443 58.6797 264.463C58.708 264.48 58.741 264.486 58.7734 264.481C58.8057 264.476 58.8352 264.46 58.8571 264.435C59.2264 264.132 59.6834 263.961 60.158 263.947C60.1879 263.955 60.2195 263.954 60.2486 263.943V263.943Z" fill="#080435"/>
<path d="M59.4397 265.467C59.4712 265.771 59.6723 265.999 59.8891 265.979C60.1059 265.959 60.2556 265.691 60.228 265.387C60.2005 265.083 59.9955 264.855 59.7787 264.879C59.5619 264.903 59.4081 265.163 59.4397 265.467Z" fill="#080435"/>
<path d="M64.7934 264.002C64.8127 264.001 64.8317 263.997 64.8489 263.988C64.866 263.979 64.8808 263.966 64.892 263.95C64.9021 263.936 64.9095 263.921 64.9138 263.905C64.9181 263.888 64.9193 263.871 64.9171 263.855C64.9149 263.838 64.9094 263.822 64.901 263.807C64.8927 263.793 64.8816 263.78 64.8683 263.77C64.6359 263.573 64.3459 263.46 64.0434 263.448C63.741 263.437 63.4432 263.527 63.1969 263.706C63.1826 263.714 63.1701 263.726 63.1602 263.739C63.1504 263.753 63.1434 263.769 63.1398 263.785C63.1361 263.802 63.1357 263.819 63.1388 263.835C63.1418 263.852 63.1483 263.868 63.1576 263.882C63.1772 263.908 63.2053 263.927 63.237 263.934C63.2688 263.941 63.3021 263.937 63.331 263.922C63.7869 263.784 64.2748 263.804 64.7186 263.978C64.7402 263.994 64.7665 264.002 64.7934 264.002V264.002Z" fill="#080435"/>
<path d="M63.4721 265.102C63.421 265.218 63.4159 265.35 63.4577 265.47C63.4995 265.589 63.5851 265.688 63.6968 265.746C63.9057 265.81 64.1462 265.622 64.229 265.346C64.2803 265.23 64.286 265.099 64.2449 264.98C64.2039 264.86 64.1192 264.76 64.0082 264.702C63.7993 264.622 63.5588 264.81 63.4721 265.102Z" fill="#080435"/>
<path d="M55.0853 265.627C55.7869 266.143 56.6621 266.087 57.0562 265.503C57.4504 264.919 57.1785 264.019 56.4768 263.503C55.7751 262.987 54.9 263.039 54.5058 263.627C54.1116 264.215 54.3836 265.107 55.0853 265.627Z" fill="#FCBDB6"/>
<path d="M61.159 259.391C61.159 259.391 63.6463 258.303 64.2494 260.883C64.75 263.047 65.2664 263.839 65.9484 263.511C66.6304 263.183 64.4781 257.703 64.4781 257.703L60.5717 256.631L59.5625 256.807L61.159 259.391Z" fill="#501506"/>
<path d="M61.1598 259.391C61.1598 259.391 59.0193 257.899 57.3913 259.959C55.7632 262.019 56.3072 265.159 54.1155 265.695C51.9238 266.231 50.3116 258.867 53.205 257.251C56.0984 255.635 57.8959 255.195 58.8065 255.963C59.717 256.731 61.1598 259.391 61.1598 259.391Z" fill="#501506"/>
<path d="M51.7151 265.829L51.6875 265.701C53.824 265.261 54.2379 264.017 54.7188 262.573C55.0539 261.569 55.4323 260.429 56.4651 259.437C57.7699 258.197 58.9682 258.093 59.7448 258.237C60.2482 258.32 60.7251 258.523 61.1363 258.829L61.0535 258.933C61.0299 258.933 58.9644 257.245 56.5558 259.545C55.5428 260.513 55.1879 261.589 54.841 262.629C54.3483 264.097 53.9265 265.377 51.7151 265.829Z" fill="white"/>
<path d="M64.4944 268.431C64.2421 268.429 63.9931 268.372 63.7651 268.263C62.5116 267.663 61.877 265.611 62.35 263.683C62.6299 262.543 63.2566 261.639 64.0253 261.283C64.259 261.166 64.5159 261.105 64.7763 261.105C65.0366 261.105 65.2935 261.166 65.5272 261.283C66.7808 261.883 67.4153 263.935 66.9423 265.859C66.6664 267.003 66.0357 267.903 65.267 268.259C65.0255 268.374 64.7614 268.433 64.4944 268.431V268.431ZM64.7979 261.327C64.5655 261.328 64.3363 261.382 64.1278 261.487C63.4183 261.827 62.8427 262.687 62.5786 263.743C62.1331 265.563 62.7126 267.491 63.8676 268.043C64.0694 268.143 64.2912 268.196 64.516 268.196C64.7409 268.196 64.9627 268.143 65.1645 268.043C65.874 267.703 66.4495 266.843 66.7137 265.787C67.1591 263.967 66.5797 262.035 65.4247 261.483C65.2346 261.386 65.0261 261.333 64.8137 261.327H64.7979Z" fill="white"/>
<g opacity="0.3">
<path opacity="0.3" d="M55.8975 263.803C55.6176 265.655 56.5006 267.555 57.8684 268.043C59.2363 268.531 60.5766 267.419 60.8565 265.567C61.1363 263.715 60.2533 261.811 58.8855 261.327C57.5176 260.843 56.1773 261.947 55.8975 263.803Z" fill="white"/>
</g>
<g opacity="0.3">
<path opacity="0.3" d="M64.7761 268.217C66.0323 268.142 66.9593 266.513 66.8466 264.579C66.734 262.645 65.6243 261.138 64.3681 261.213C63.112 261.289 62.1851 262.917 62.2977 264.852C62.4104 266.786 63.52 268.292 64.7761 268.217Z" fill="white"/>
</g>
<path d="M58.6473 268.203C58.4017 268.203 58.1579 268.161 57.926 268.079C56.4163 267.555 55.4426 265.515 55.7501 263.527C55.8053 263.03 55.9661 262.551 56.2212 262.122C56.4764 261.694 56.82 261.327 57.2283 261.047C57.5052 260.876 57.8157 260.769 58.138 260.734C58.4603 260.698 58.7864 260.736 59.0928 260.843C60.6026 261.367 61.5762 263.411 61.2648 265.399C61.2107 265.895 61.0508 266.374 60.7962 266.802C60.5417 267.229 60.1985 267.595 59.7905 267.875C59.4469 268.09 59.051 268.203 58.6473 268.203V268.203ZM58.3635 260.959C58.0054 260.961 57.6548 261.063 57.3504 261.255C56.9715 261.516 56.6533 261.858 56.4178 262.256C56.1822 262.655 56.0351 263.101 55.9865 263.563C55.6909 265.439 56.5976 267.363 58.0009 267.851C58.2743 267.95 58.5661 267.985 58.8548 267.954C59.1435 267.923 59.4216 267.826 59.6683 267.671C60.0466 267.408 60.3643 267.066 60.5997 266.666C60.8352 266.267 60.9827 265.821 61.0322 265.359C61.3239 263.483 60.4213 261.559 59.0179 261.071C58.8074 260.997 58.5862 260.959 58.3635 260.959V260.959Z" fill="white"/>
<path d="M62.6208 264.811C62.5744 264.811 62.529 264.797 62.4907 264.771C62.239 264.628 61.9606 264.54 61.6733 264.513C61.3861 264.486 61.0964 264.521 60.8232 264.615C60.794 264.624 60.7633 264.627 60.7329 264.624C60.7024 264.621 60.6729 264.611 60.6461 264.596C60.6192 264.581 60.5956 264.561 60.5766 264.537C60.5576 264.513 60.5436 264.485 60.5355 264.455C60.5196 264.395 60.5272 264.332 60.5567 264.278C60.5861 264.224 60.6351 264.184 60.6932 264.167C61.0325 264.053 61.3919 264.013 61.7474 264.051C62.1029 264.089 62.4463 264.203 62.7548 264.387C62.7795 264.404 62.8004 264.427 62.8165 264.452C62.8327 264.478 62.8436 264.507 62.8488 264.537C62.8539 264.567 62.8531 264.598 62.8465 264.628C62.8398 264.658 62.8274 264.686 62.81 264.711C62.7893 264.742 62.7612 264.768 62.7281 264.785C62.695 264.803 62.6581 264.812 62.6208 264.811V264.811Z" fill="white"/>
<path d="M61.026 269.262C60.4862 269.262 59.9608 269.085 59.528 268.758C59.5192 268.751 59.5118 268.743 59.5062 268.733C59.5005 268.724 59.4967 268.713 59.4951 268.702C59.4934 268.691 59.4939 268.68 59.4965 268.669C59.4992 268.659 59.5038 268.648 59.5103 268.64C59.5168 268.631 59.5249 268.623 59.5343 268.617C59.5436 268.612 59.554 268.608 59.5648 268.606C59.5756 268.604 59.5866 268.605 59.5972 268.608C59.6078 268.61 59.6178 268.615 59.6266 268.622C61.1797 269.762 62.7486 268.522 62.8156 268.47C62.8235 268.46 62.8332 268.452 62.8443 268.447C62.8554 268.442 62.8675 268.439 62.8797 268.439C62.8919 268.44 62.9039 268.442 62.915 268.448C62.926 268.453 62.9356 268.461 62.9433 268.47C62.951 268.48 62.9566 268.491 62.9595 268.503C62.9624 268.515 62.9627 268.528 62.9603 268.54C62.9579 268.552 62.9528 268.564 62.9456 268.574C62.9383 268.584 62.9289 268.592 62.9181 268.598C62.3685 269.009 61.7085 269.24 61.026 269.262Z" fill="#333333"/>
<path d="M59.4558 269.106C59.4354 269.105 59.4159 269.097 59.4008 269.083C59.3856 269.069 59.3758 269.05 59.3731 269.03C59.3717 268.755 59.4667 268.488 59.6411 268.278C59.6539 268.259 59.6728 268.245 59.6945 268.24C59.7161 268.234 59.7391 268.236 59.7594 268.246C59.7688 268.25 59.7771 268.257 59.7839 268.265C59.7907 268.273 59.7957 268.282 59.7987 268.293C59.8017 268.303 59.8026 268.313 59.8012 268.324C59.7999 268.334 59.7964 268.345 59.7909 268.354V268.378C59.6392 268.552 59.5551 268.777 59.5544 269.01C59.5567 269.032 59.5507 269.054 59.5375 269.072C59.5244 269.09 59.505 269.102 59.4834 269.106H59.4558Z" fill="#333333"/>
<path d="M42.9123 327.562C42.2816 330.666 51.8526 332.258 62.622 331.562C73.3914 330.866 82.0045 326.338 81.9375 325.066C81.8705 323.794 73.0602 323.314 62.283 324.002C51.5057 324.69 43.1646 326.31 42.9123 327.562Z" fill="#333333"/>
<path d="M77.4075 325.827C78.0737 325.859 78.7872 327.279 78.8384 327.959C79.0946 331.127 81.176 339.783 77.6834 361.099C74.5062 380.455 66.9575 402.491 65.1166 411.844C64.4622 415.188 65.5107 415.1 62.2074 415.232L60.4414 415.304C58.774 415.356 58.0762 415.524 58.3482 411.844L58.7424 345.411C58.7424 345.411 58.5927 325.063 63.9419 324.959C67.1467 324.895 74.2146 325.675 77.4075 325.827Z" fill="#FCBDB6"/>
<path d="M69.1457 326.631L39.5497 411.832C38.5129 415.216 39.5497 416.748 36.1123 416.808L34.6222 416.832C31.106 416.896 32.1389 408.748 32.7814 405.156L43.2315 329.227C43.4286 328.327 47.4099 327.359 48.2653 327.107C52.9129 325.755 69.6188 323.291 69.1457 326.631Z" fill="#FCBDB6"/>
<path d="M56.9331 313.867L57.0317 307.587C57.0417 307.173 56.8932 306.771 56.6176 306.466C56.3419 306.161 55.9605 305.977 55.5535 305.951C51.2607 305.639 48.2608 304.287 46.6131 301.927C44.3307 298.647 44.5712 293.555 45.2059 290.023C45.5331 288.219 44.9457 287.007 42.7934 285.851C41.4935 285.17 40.1013 284.689 38.6622 284.423C37.7477 284.263 36.8371 284.639 36.6046 285.547C36.0756 287.595 35.7156 289.685 35.5284 291.795C34.9884 297.987 36.163 303.395 38.9342 307.395C42.3322 312.303 47.8075 314.995 55.2302 315.479C55.4478 315.493 55.6661 315.462 55.8714 315.387C56.0768 315.313 56.265 315.197 56.4244 315.046C56.5839 314.895 56.7113 314.712 56.7988 314.51C56.8863 314.307 56.932 314.088 56.9331 313.867V313.867Z" fill="#FCBDB6"/>
<path d="M41.1585 305.622C40.8166 305.597 40.4841 305.497 40.184 305.33C39.8838 305.162 39.6231 304.93 39.42 304.65V304.65C38.6908 303.73 38.6317 302.566 39.2387 302.05C39.4118 301.922 39.6132 301.84 39.825 301.811C40.0368 301.782 40.2525 301.806 40.4529 301.882C40.9485 302.049 41.3835 302.362 41.7024 302.782C42.4317 303.698 42.5105 304.866 41.8838 305.378C41.6775 305.542 41.4209 305.629 41.1585 305.622V305.622ZM39.5817 304.518C40.24 305.346 41.2137 305.658 41.7577 305.218C42.3017 304.778 42.2031 303.742 41.5487 302.914C41.2548 302.527 40.8542 302.237 40.3977 302.082C40.2296 302.015 40.0477 301.993 39.8687 302.016C39.6897 302.039 39.5193 302.107 39.3728 302.214C38.8328 302.654 38.9274 303.69 39.5817 304.518Z" fill="#F9A6A0"/>
<path d="M67.3197 259.101C66.3991 258.268 65.2518 257.737 64.0283 257.577C60.1652 256.945 54.5676 257.521 51.7767 262.422L50.5469 260.274L53.2234 256.369L58.0168 254.769L62.621 253.693L66.8783 254.981L67.3197 259.101Z" fill="#FF4B42"/>
<path d="M79.8674 295.59L75.7008 319.926C75.6382 320.303 75.5019 320.664 75.3 320.987C75.0981 321.31 74.8346 321.588 74.525 321.806C74.2154 322.025 73.8658 322.178 73.4971 322.256C73.1283 322.335 72.7478 322.339 72.3777 322.266L61.2141 319.97C60.4895 319.826 59.8496 319.399 59.4311 318.781C59.0127 318.164 58.849 317.405 58.9752 316.666L63.0787 292.666C63.2068 291.917 63.6223 291.25 64.2341 290.812C64.8459 290.373 65.6041 290.198 66.3426 290.326L77.5653 292.266C77.9316 292.331 78.2818 292.468 78.5957 292.67C78.9097 292.872 79.1813 293.135 79.3951 293.444C79.6089 293.753 79.7606 294.101 79.8416 294.469C79.9227 294.838 79.9314 295.218 79.8674 295.59V295.59Z" fill="#24555E"/>
<path d="M65.6133 294.067C65.6125 293.917 65.6555 293.77 65.7369 293.646C65.8183 293.521 65.9344 293.423 66.0704 293.365C66.2065 293.307 66.3564 293.292 66.5012 293.321C66.646 293.349 66.7791 293.421 66.8836 293.527C66.9882 293.632 67.0597 293.767 67.0887 293.914C67.1178 294.06 67.1032 294.213 67.047 294.351C66.9907 294.489 66.8952 294.608 66.7726 294.691C66.65 294.774 66.5058 294.819 66.3583 294.819C66.1614 294.819 65.9724 294.74 65.8328 294.599C65.6932 294.458 65.6143 294.266 65.6133 294.067V294.067Z" fill="#92A5E6"/>
<path d="M55.5546 305.946C55.5546 305.946 61.5424 303.39 64.3333 303.742C67.1242 304.094 70.4236 306.686 68.6458 306.842C67.2743 306.9 65.9006 306.804 64.55 306.554C64.55 306.554 69.4656 307.73 68.697 308.778C67.9283 309.826 63.6631 308.778 63.6631 308.778C63.6631 308.778 69.4026 310.65 68.362 311.402C67.3213 312.154 62.9693 310.698 62.9693 310.698C62.9693 310.698 68.2397 312.654 67.0098 313.498C65.7799 314.342 62.6737 311.854 61.8853 312.902C61.0969 313.95 56.7608 317.146 53.627 315.33L55.5546 305.946Z" fill="#FCBDB6"/>
<path d="M64.5486 306.667H64.5092C64.5092 306.667 63.2045 306.147 62.5383 306.611C62.5268 306.619 62.5137 306.624 62.5 306.627C62.4863 306.63 62.4722 306.63 62.4585 306.627C62.4448 306.624 62.4319 306.618 62.4206 306.61C62.4092 306.601 62.3996 306.591 62.3924 306.579C62.3773 306.556 62.3717 306.528 62.3769 306.501C62.3821 306.474 62.3976 306.45 62.42 306.435C63.2084 305.911 64.5368 306.435 64.596 306.471C64.6211 306.481 64.6413 306.501 64.6523 306.527C64.6633 306.552 64.6642 306.581 64.655 306.607C64.6451 306.626 64.6297 306.642 64.6108 306.653C64.5919 306.664 64.5702 306.668 64.5486 306.667V306.667Z" fill="#F9A6A0"/>
<path d="M63.6623 308.867C63.6494 308.871 63.6358 308.871 63.623 308.867C62.8537 308.563 62.0036 308.545 61.2223 308.815C61.1961 308.825 61.167 308.825 61.1411 308.814C61.1153 308.802 61.0949 308.781 61.0844 308.755C61.0752 308.729 61.0762 308.7 61.0872 308.675C61.0982 308.65 61.1183 308.629 61.1435 308.619C61.9748 308.322 62.8838 308.342 63.7018 308.675C63.7145 308.68 63.7262 308.687 63.736 308.697C63.7458 308.706 63.7536 308.718 63.7587 308.73C63.7639 308.743 63.7665 308.757 63.7662 308.771C63.7659 308.785 63.7627 308.798 63.7569 308.811C63.748 308.828 63.7344 308.843 63.7177 308.853C63.7009 308.863 63.6817 308.867 63.6623 308.867V308.867Z" fill="#F9A6A0"/>
<path d="M62.9685 310.787H62.9292C62.9292 310.787 61.3799 310.163 60.7019 310.719C60.6913 310.728 60.6792 310.734 60.6661 310.738C60.6531 310.742 60.6394 310.743 60.6258 310.742C60.6123 310.74 60.5992 310.736 60.5872 310.729C60.5753 310.723 60.5647 310.714 60.5561 310.703C60.5476 310.692 60.5412 310.68 60.5374 310.667C60.5335 310.653 60.5323 310.639 60.5338 310.626C60.5353 310.612 60.5394 310.599 60.5459 310.586C60.5525 310.574 60.5613 310.564 60.5719 310.555C61.3406 309.923 62.937 310.555 63.008 310.591C63.0208 310.596 63.0325 310.603 63.0423 310.613C63.0521 310.622 63.0598 310.634 63.065 310.647C63.0702 310.66 63.0727 310.673 63.0724 310.687C63.0721 310.701 63.069 310.714 63.0632 310.727C63.0549 310.745 63.0414 310.761 63.0247 310.771C63.0079 310.782 62.9883 310.787 62.9685 310.787V310.787Z" fill="#F9A6A0"/>
<path d="M79.6831 309.527C79.6831 309.527 81.654 312.471 79.4347 312.223C76.5807 311.911 71.0778 308.267 72.8911 308.439C74.1985 308.629 75.4835 308.954 76.7266 309.407C76.7266 309.407 71.0818 307.247 71.9017 306.111C72.7216 304.975 77.5505 306.911 77.5505 306.911C77.5505 306.911 72.2407 304.235 73.3286 303.435C74.4166 302.635 78.8119 304.359 78.8119 304.359C78.8119 304.359 73.4943 302.051 74.7793 301.158C76.0644 300.266 78.327 301.691 79.5569 302.187C80.7198 302.655 81.0785 304.011 80.5779 305.211C80.5779 305.211 80.7119 306.719 80.1837 307.419C79.9866 307.683 80.1482 308.091 80.097 308.323C79.9862 308.733 79.8479 309.135 79.6831 309.527V309.527Z" fill="#FCBDB6"/>
<path d="M79.8129 312.31C79.7901 312.31 79.7679 312.302 79.7501 312.287C79.7322 312.273 79.7197 312.252 79.7144 312.23C79.7109 312.217 79.71 312.203 79.7119 312.189C79.7138 312.176 79.7184 312.163 79.7255 312.151C79.7325 312.14 79.7417 312.13 79.7527 312.122C79.7637 312.114 79.7761 312.109 79.7893 312.106C79.8748 312.088 79.955 312.051 80.0235 311.996C80.092 311.941 80.1468 311.87 80.1835 311.79C80.5422 311.022 79.7419 309.274 79.7301 309.254C79.7206 309.232 79.7187 309.208 79.7244 309.184C79.7301 309.161 79.7432 309.141 79.7616 309.126C80.2859 308.698 80.1125 307.434 80.1125 307.422C80.1065 307.404 80.1065 307.384 80.1125 307.366C80.2955 306.888 80.4212 306.39 80.487 305.882C80.5224 305.635 80.5435 305.387 80.55 305.138C80.5675 304.654 80.6176 304.171 80.6999 303.694C80.9009 302.318 78.8235 301.95 78.7998 301.946C78.7864 301.944 78.7735 301.939 78.7619 301.932C78.7504 301.925 78.7404 301.915 78.7327 301.904C78.7249 301.893 78.7195 301.88 78.7168 301.867C78.7141 301.853 78.7142 301.839 78.7171 301.826C78.719 301.812 78.7235 301.799 78.7305 301.787C78.7376 301.775 78.7469 301.765 78.7579 301.756C78.7689 301.748 78.7814 301.742 78.7947 301.739C78.808 301.736 78.8218 301.735 78.8352 301.738C78.8589 301.738 81.1373 302.138 80.9048 303.738C80.8225 304.207 80.7738 304.681 80.759 305.158C80.759 305.354 80.759 305.558 80.6959 305.922C80.6251 306.44 80.4927 306.948 80.3017 307.434C80.3254 307.634 80.4357 308.746 79.9311 309.25C80.0849 309.602 80.7195 311.118 80.3529 311.89C80.3029 311.996 80.2304 312.09 80.1404 312.165C80.0505 312.24 79.9453 312.293 79.8326 312.322L79.8129 312.31Z" fill="#F9A6A0"/>
<path d="M65.1174 411.844C65.1174 411.844 65.2001 415.18 67.4273 416.124C69.6545 417.068 76.0996 417.916 73.695 420.06C72.3114 421.292 65.7914 420.496 63.9544 420.496C62.1175 420.496 60.3831 421.296 59.0152 420.06C57.5134 418.684 58.349 411.844 58.349 411.844C58.349 411.844 60.6038 412.68 62.0347 412.644C64.1003 412.588 65.1174 411.844 65.1174 411.844Z" fill="#333333"/>
<path d="M39.5491 411.839C39.5491 411.839 39.6319 415.179 41.8591 416.123C44.0863 417.067 50.5313 417.915 48.1267 420.059C46.7431 421.291 40.2231 420.495 38.3823 420.495C36.5414 420.495 34.8148 421.295 33.4469 420.059C31.9411 418.683 32.1264 411.559 32.1264 411.559C32.1264 411.559 35.0355 412.679 36.4625 412.643C38.5241 412.587 39.5491 411.839 39.5491 411.839Z" fill="#333333"/>
<path d="M79.5409 326.426C80.7589 335.395 82.0007 406.211 65.6141 414.087C65.6141 414.087 61.1873 414.979 58.1244 413.735C58.1244 413.735 54.3677 414.135 55.0536 407.259C55.7395 400.383 59.031 358.543 57.0246 347.351C55.8022 340.239 55.1104 333.044 54.9551 325.826C54.9551 325.826 66.4222 323.934 78.4096 325.334C78.6916 325.361 78.9566 325.483 79.1618 325.681C79.367 325.88 79.5005 326.142 79.5409 326.426V326.426Z" fill="#49ADB7"/>
<path d="M64.5501 329.467C64.5501 329.467 50.5759 400.96 46.2161 408.54C41.8563 416.12 30.8899 414.292 30.4287 411.844C29.9675 409.396 42.2032 331.099 42.2032 331.099C42.2032 331.099 42.0022 328.219 44.5684 327.711C47.2962 327.171 57.3087 325.131 62.3071 325.051L64.5501 329.467Z" fill="#49ADB7"/>
<path d="M57.8398 363.306H57.418C57.8122 351.174 64.3124 341.934 64.3755 341.842L64.7224 342.094C64.6554 342.17 58.2497 351.306 57.8398 363.306Z" fill="#333333"/>
<path d="M543.328 311.61C538.141 312.61 532.263 311.666 525.842 308.81C522.884 307.496 520.061 305.888 517.414 304.01L523.087 295.774L520.252 299.89L523.079 295.766C526.031 297.942 535.188 303.218 542.035 301.51C545.142 300.734 547.554 298.55 549.367 294.83L558.111 299.498C555.004 305.826 550.25 309.942 544.369 311.402C544.027 311.474 543.681 311.543 543.328 311.61Z" fill="#FCBDB6"/>
<path d="M530.826 305.066C530.826 305.066 527.601 300.194 524.322 298.69C521.042 297.186 518.965 298.434 518.965 298.434L515.448 297.01C515.448 297.01 514.944 310.55 524.085 308.166C524.818 307.994 530.826 305.066 530.826 305.066Z" fill="#FCBDB6"/>
<path d="M515.988 290.731L519.95 313.871C520.012 314.23 520.144 314.573 520.339 314.88C520.533 315.186 520.787 315.45 521.084 315.656C521.381 315.861 521.715 316.004 522.067 316.076C522.42 316.148 522.783 316.148 523.135 316.075L533.747 313.895C534.433 313.754 535.038 313.347 535.432 312.761C535.827 312.174 535.98 311.454 535.86 310.755L531.957 287.954C531.836 287.242 531.441 286.608 530.859 286.191C530.278 285.774 529.557 285.609 528.855 285.73L518.188 287.574C517.839 287.635 517.505 287.765 517.206 287.956C516.907 288.147 516.648 288.397 516.443 288.69C516.239 288.983 516.094 289.314 516.016 289.664C515.938 290.014 515.928 290.377 515.988 290.731V290.731Z" fill="#333333"/>
<path d="M517.647 290.014C517.65 289.872 517.695 289.733 517.775 289.617C517.856 289.5 517.969 289.41 518.1 289.359C518.231 289.308 518.374 289.297 518.511 289.328C518.649 289.359 518.773 289.431 518.87 289.534C518.967 289.638 519.032 289.768 519.055 289.908C519.079 290.049 519.061 290.193 519.004 290.323C518.947 290.454 518.853 290.564 518.734 290.64C518.615 290.716 518.477 290.754 518.336 290.75C518.149 290.745 517.971 290.665 517.842 290.527C517.713 290.389 517.642 290.205 517.647 290.014V290.014Z" fill="#DAEBE8"/>
<path d="M512.798 297.067C512.798 297.067 511.615 294.426 513.98 293.346C517.015 291.966 522.097 293.202 520.185 294.102C518.783 294.694 517.33 295.151 515.845 295.466C515.845 295.466 522.66 294.166 522.444 295.694C522.227 297.222 516.349 298.259 516.349 298.259C516.349 298.259 523.102 297.631 522.436 299.007C521.77 300.383 516.44 301.355 516.44 301.355C516.44 301.355 523.007 300.383 522.195 301.963C521.383 303.543 517.887 303.347 516.385 303.607C514.97 303.855 514.351 303.007 514.217 301.607C514.217 301.607 513.279 300.287 513.428 299.347C513.48 298.987 513.101 298.703 513.034 298.459C512.92 298.001 512.841 297.536 512.798 297.067V297.067Z" fill="#FCBDB6"/>
<path d="M563.579 423.252C563.579 423.252 563.497 426.692 561.214 427.652C558.932 428.612 552.274 429.5 554.757 431.708C556.18 432.98 562.897 432.16 564.793 432.16C566.69 432.16 568.467 432.996 569.879 431.708C571.428 430.292 569.879 423.244 569.879 423.244C569.879 423.244 568.243 424.108 566.772 424.068C564.64 424.02 563.579 423.252 563.579 423.252Z" fill="#333333"/>
<path d="M589.919 423.252C589.919 423.252 589.832 426.688 587.554 427.652C585.275 428.616 578.613 429.496 581.097 431.708C582.52 432.976 589.237 432.156 591.133 432.156C593.029 432.156 594.807 432.996 596.218 431.708C597.767 430.292 596.218 423.244 596.218 423.244C596.218 423.244 594.582 424.108 593.108 424.068C590.979 424.02 589.919 423.252 589.919 423.252Z" fill="#333333"/>
<path d="M546.534 328.963C546.534 328.963 546.108 343.363 550.638 370.963C553.905 390.899 557.765 410.992 559.661 420.624C559.971 422.281 560.822 423.785 562.077 424.892C563.332 426 564.918 426.646 566.579 426.728L568.396 426.8C569.27 426.824 570.139 426.661 570.947 426.322C571.755 425.982 572.483 425.473 573.083 424.828C573.684 424.183 574.144 423.417 574.432 422.579C574.721 421.742 574.832 420.852 574.758 419.968L570.162 354.799L569.031 333.351L546.534 328.963Z" fill="#49ADB7"/>
<path d="M587.955 341.631C587.746 343.383 577.982 343.171 566.026 341.631C554.07 340.091 544.767 337.467 544.976 335.715C545.185 333.963 554.831 333.751 566.783 335.287C578.735 336.823 588.164 339.867 587.955 341.631Z" fill="#333333"/>
<path d="M560.26 339.243L585.784 422.443C586.285 424.126 587.297 425.606 588.675 426.671C590.053 427.736 591.727 428.333 593.459 428.376L594.996 428.4C595.856 428.401 596.705 428.21 597.483 427.839C598.261 427.468 598.948 426.928 599.496 426.255C600.043 425.583 600.437 424.796 600.65 423.951C600.862 423.106 600.887 422.224 600.724 421.367L586.762 343.191C586.666 342.738 586.452 342.32 586.142 341.981C585.832 341.642 585.437 341.394 585 341.263C580.214 339.867 559.787 335.803 560.26 339.243Z" fill="#49ADB7"/>
<path d="M589.583 335.755L583.797 328.955C583.899 328.887 595.26 321.61 594.172 311.246C593.604 305.846 590.415 301.502 584.688 298.33C581.842 296.779 578.787 295.661 575.621 295.01L576.981 286.162C581.097 286.964 585.068 288.401 588.756 290.422C597.034 295.006 601.878 301.87 602.761 310.278C603.475 317.078 601.133 323.818 595.993 329.803C592.319 334.075 592.465 334.331 589.583 335.755Z" fill="#FCBDB6"/>
<path d="M583.966 293.73C583.966 293.73 580.568 284.034 568.471 284.474C556.373 284.914 547.239 301.046 544.977 335.718C544.977 335.718 564.785 331.318 587.991 341.594C587.983 341.594 589.28 307.866 583.966 293.73Z" fill="#24555E"/>
<path d="M593.467 291.678L583.892 298.714C583.892 298.714 561.861 300.95 556.011 299.874C550.161 298.798 548.561 293.994 548.561 293.994C553.1 289.26 558.976 286.072 565.377 284.87C566.4 284.681 567.433 284.547 568.471 284.47C570.256 284.35 572.047 284.39 573.824 284.59C584.282 285.742 593.467 291.678 593.467 291.678Z" fill="#24555E"/>
<path d="M593.465 291.678C593.982 292.442 592.259 294.634 589.618 296.574C586.977 298.515 584.407 299.475 583.89 298.715C583.374 297.954 585.093 295.758 587.738 293.818C590.383 291.878 592.945 290.918 593.465 291.678Z" fill="#333333"/>
<path d="M599.983 313.599C599.108 313.599 598.406 312.583 598.406 311.331C598.406 310.079 599.12 309.059 599.983 309.059C600.846 309.059 601.56 310.079 601.56 311.331C601.56 312.583 600.862 313.599 599.983 313.599ZM599.983 309.487C599.348 309.487 598.8 310.331 598.8 311.331C598.8 312.331 599.325 313.175 599.983 313.175C600.641 313.175 601.166 312.331 601.166 311.331C601.166 310.331 600.618 309.487 599.983 309.487Z" fill="#F9A6A0"/>
<path d="M573.792 284.593C573.157 284.525 572.551 284.288 572.036 283.905C571.521 283.522 571.115 283.007 570.86 282.413L569.247 278.613L568.782 277.513L566.023 271.025L566.5 277.745L566.784 281.781L566.866 282.929C566.899 283.382 566.764 283.831 566.488 284.188C566.213 284.546 565.817 284.787 565.376 284.865C564.884 285.665 564.194 287.314 566.228 287.97C568.593 288.734 572.444 286.838 573.824 284.59L573.792 284.593Z" fill="#FCBDB6"/>
<path d="M588.465 325.923C588.465 325.923 584.878 322.595 582.051 322.887C579.225 323.179 575.823 325.727 577.617 325.923C579.003 326.014 580.395 325.948 581.767 325.727C581.767 325.727 576.765 326.807 577.522 327.883C578.279 328.959 582.615 327.979 582.615 327.979C582.615 327.979 576.765 329.743 577.806 330.527C578.846 331.311 583.277 329.939 583.277 329.939C583.277 329.939 577.9 331.799 579.126 332.683C580.352 333.567 583.557 331.115 584.314 332.191C585.071 333.267 586.482 337.483 589.691 335.719L588.465 325.923Z" fill="#FCBDB6"/>
<path d="M571.667 376.431L566.176 359.498C564.966 355.722 562.42 352.534 559.029 350.55L559.242 350.15C562.726 352.19 565.341 355.468 566.582 359.35L572.073 376.283L571.667 376.431Z" fill="#333333"/>
<path d="M585.658 298.843C585.658 298.843 585.125 297.243 587.53 295.427C589.935 293.611 593.049 293.223 593.049 293.223L593.68 296.311L590.281 297.815L585.658 298.843Z" fill="#FCBDB6"/>
<path d="M573.524 269.922C573.524 269.922 573.268 271.022 573.891 273.286C574.805 276.59 571.08 277.974 570.126 277.03C570.008 276.91 570.165 271.286 570.165 271.286L571.348 270.57L573.524 269.922Z" fill="#501506"/>
<path d="M569.263 278.503C569.265 278.54 569.265 278.578 569.263 278.615C569.105 280.783 566.823 281.815 566.823 281.815L566.539 277.779C567.237 277.523 568.23 277.255 568.814 277.547C568.974 277.642 569.103 277.784 569.183 277.955C569.264 278.125 569.291 278.316 569.263 278.503V278.503Z" fill="#333333"/>
<path d="M559.514 272.103C559.514 267.799 562.297 264.311 565.734 264.311C569.172 264.311 571.959 267.799 571.959 272.103C571.959 276.407 569.172 279.895 565.734 279.895C562.297 279.895 559.514 276.407 559.514 272.103Z" fill="#FCBDB6"/>
<path d="M563.27 266.122C563.443 266.362 562.462 270.37 569.782 271.322C577.102 272.274 572.703 263.27 567.303 263.066C559.509 262.774 558.374 268.094 559.123 270.006C559.872 271.918 563.27 266.122 563.27 266.122Z" fill="#501506"/>
<path d="M574.55 261.193C574.55 261.193 571.262 263.425 573.789 265.525C576.316 267.625 583.273 268.545 581.377 272.089C579.481 275.634 577.829 280.89 581.251 281.538C584.672 282.186 586.813 281.938 588.2 284.686C589.588 287.434 595.785 285.738 595.296 282.454C594.807 279.17 600.101 276.285 597.823 273.253C595.544 270.221 589.986 267.609 588.595 263.653C587.203 259.697 577.202 259.489 574.55 261.193Z" fill="#501506"/>
<path d="M568.975 270.051C568.975 270.051 571.963 273.251 570.926 276.519C570.926 276.519 572.66 274.595 572.7 273.879C572.625 272.769 572.485 271.664 572.278 270.571L568.975 270.051Z" fill="#501506"/>
<path d="M571.127 273.279C570.421 273.959 569.435 274.031 568.923 273.435C568.411 272.839 568.572 271.799 569.274 271.119C569.976 270.439 570.965 270.363 571.477 270.959C571.99 271.555 571.821 272.595 571.127 273.279Z" fill="#FCBDB6"/>
<path d="M593.761 285.757C593.744 285.761 593.727 285.761 593.71 285.757C592.827 285.413 592.303 284.957 592.11 284.425C591.81 283.585 592.318 282.665 592.859 281.693C593.328 280.837 593.816 279.957 593.698 279.165C593.56 278.229 592.354 278.013 591.073 277.781C589.993 277.585 588.877 277.381 588.436 276.685C588.328 276.497 588.261 276.288 588.239 276.071C588.218 275.855 588.242 275.636 588.31 275.429C588.451 274.877 588.625 274.381 588.79 273.905C589.508 271.849 590.079 270.225 586.902 266.505C582.826 261.733 579.452 261.501 576.409 261.965C576.054 262.021 575.155 262.489 575.159 262.909C575.159 263.125 575.451 263.665 578.088 264.001C579.308 264.363 580.434 264.992 581.388 265.844C582.342 266.697 583.099 267.751 583.607 268.933C584.557 271.089 583.213 273.397 582.125 275.249C581.399 276.493 580.773 277.569 580.97 278.289C581.013 278.428 581.084 278.556 581.179 278.665C581.274 278.774 581.391 278.861 581.521 278.921C582.274 279.299 583.068 279.587 583.887 279.777C585.944 280.341 588.073 280.925 588.341 284.689C588.343 284.729 588.33 284.768 588.304 284.798C588.278 284.828 588.242 284.846 588.203 284.849C588.184 284.851 588.164 284.849 588.145 284.843C588.127 284.836 588.11 284.826 588.095 284.813C588.08 284.8 588.068 284.784 588.06 284.767C588.051 284.749 588.046 284.729 588.045 284.709C587.793 281.161 585.858 280.629 583.808 280.065C582.968 279.869 582.153 279.575 581.38 279.189C581.216 279.111 581.07 279 580.95 278.862C580.83 278.725 580.739 278.564 580.682 278.389C580.453 277.545 581.112 276.417 581.864 275.117C582.964 273.229 584.23 271.089 583.331 269.073C582.841 267.935 582.112 266.92 581.195 266.098C580.278 265.277 579.195 264.669 578.021 264.317C575.896 264.045 574.868 263.593 574.848 262.933C574.828 262.273 575.96 261.733 576.35 261.689C579.476 261.213 582.941 261.445 587.107 266.325C590.399 270.181 589.808 271.877 589.055 274.025C588.889 274.497 588.719 274.985 588.582 275.525C588.523 275.691 588.501 275.868 588.516 276.043C588.531 276.218 588.583 276.388 588.668 276.541C589.039 277.133 590.091 277.341 591.108 277.505C592.437 277.745 593.808 277.993 593.978 279.141C594.108 280.033 593.584 280.961 593.099 281.857C592.614 282.753 592.117 283.633 592.37 284.341C592.535 284.805 593.004 285.185 593.801 285.497C593.818 285.505 593.835 285.515 593.849 285.529C593.862 285.542 593.873 285.558 593.881 285.576C593.889 285.594 593.893 285.613 593.893 285.633C593.894 285.652 593.89 285.671 593.883 285.689C593.87 285.71 593.852 285.727 593.831 285.739C593.809 285.751 593.786 285.757 593.761 285.757V285.757Z" fill="white"/>
<path d="M569.849 268.966C569.001 268.936 568.173 268.703 567.431 268.286C566.689 267.869 566.055 267.279 565.58 266.566C565.569 266.55 565.562 266.531 565.559 266.512C565.555 266.493 565.556 266.473 565.561 266.454C565.565 266.435 565.573 266.417 565.585 266.401C565.596 266.385 565.611 266.372 565.627 266.362C565.644 266.351 565.662 266.344 565.682 266.34C565.701 266.337 565.721 266.337 565.74 266.342C565.759 266.346 565.777 266.355 565.793 266.366C565.809 266.378 565.822 266.393 565.832 266.41C566.285 267.075 566.883 267.625 567.58 268.017C568.277 268.408 569.053 268.63 569.849 268.666C569.889 268.666 569.927 268.682 569.955 268.711C569.983 268.739 569.999 268.778 569.999 268.818C569.999 268.858 569.983 268.897 569.955 268.926C569.927 268.954 569.889 268.97 569.849 268.97V268.966Z" fill="white"/>
<path d="M581.801 325.828L581.727 325.628C581.786 325.608 583.166 325.091 583.93 325.628L583.808 325.8C583.134 325.331 581.813 325.824 581.801 325.828Z" fill="#F9A6A0"/>
<path d="M582.653 328.078L582.574 327.883C583.41 327.565 584.332 327.565 585.168 327.883L585.081 328.078C584.297 327.789 583.437 327.789 582.653 328.078V328.078Z" fill="#F9A6A0"/>
<path d="M583.311 330.039L583.236 329.839C583.307 329.815 584.935 329.203 585.7 329.839L585.566 330.003C584.892 329.467 583.327 330.035 583.311 330.039Z" fill="#F9A6A0"/>
<path d="M546.746 337.288C546.746 337.288 552.304 336.488 560.649 337.132C568.713 337.769 576.707 339.108 584.545 341.132L580.446 341.832L554.756 342.864L549.588 338.56L546.746 337.288Z" fill="#49ADB7"/>
<path d="M562.301 277.142C563.746 277.14 565.18 276.9 566.55 276.434C566.55 276.434 566.728 278.562 564.426 278.702C563.085 278.786 562.301 277.142 562.301 277.142Z" fill="#E9633E"/>
<path d="M562.301 277.142C562.301 277.142 562.813 277.578 564.015 277.57C565.218 277.562 566.55 276.434 566.55 276.434C566.55 276.434 563.988 277.15 562.301 277.142Z" fill="white"/>
<path d="M565.12 272.178C565.098 272.172 565.078 272.161 565.062 272.145C565.046 272.13 565.033 272.111 565.025 272.09C565.018 272.072 565.014 272.054 565.014 272.035C565.014 272.016 565.017 271.997 565.025 271.98C565.032 271.963 565.043 271.947 565.057 271.934C565.07 271.922 565.087 271.912 565.104 271.906C565.409 271.756 565.755 271.714 566.086 271.787C566.418 271.859 566.716 272.042 566.933 272.306C566.947 272.319 566.958 272.334 566.965 272.352C566.973 272.37 566.977 272.388 566.977 272.408C566.977 272.427 566.973 272.446 566.965 272.463C566.958 272.481 566.947 272.497 566.933 272.51C566.905 272.534 566.87 272.548 566.833 272.548C566.796 272.548 566.76 272.534 566.732 272.51C566.276 272.228 565.742 272.106 565.211 272.162C565.183 272.178 565.151 272.183 565.12 272.178Z" fill="#080435"/>
<path d="M566.254 273.755C566.254 274.098 566.073 274.383 565.829 274.391C565.584 274.399 565.375 274.127 565.367 273.787C565.36 273.447 565.545 273.159 565.789 273.151C566.034 273.143 566.243 273.415 566.254 273.755Z" fill="#080435"/>
<path d="M560.082 272.926C560.06 272.929 560.038 272.926 560.017 272.919C559.997 272.911 559.978 272.898 559.963 272.882C559.95 272.869 559.94 272.853 559.933 272.836C559.926 272.819 559.922 272.801 559.922 272.782C559.922 272.763 559.926 272.745 559.933 272.728C559.94 272.711 559.95 272.695 559.963 272.682C560.193 272.428 560.5 272.258 560.835 272.199C561.17 272.14 561.515 272.194 561.816 272.354C561.85 272.371 561.876 272.4 561.89 272.436C561.903 272.471 561.902 272.511 561.887 272.546C561.869 272.579 561.84 272.604 561.805 272.617C561.771 272.63 561.733 272.63 561.698 272.618C561.17 272.533 560.63 272.627 560.16 272.886C560.14 272.909 560.112 272.923 560.082 272.926V272.926Z" fill="#080435"/>
<path d="M561.71 273.953C561.784 274.074 561.81 274.219 561.781 274.359C561.752 274.498 561.672 274.621 561.556 274.701C561.331 274.805 561.039 274.633 560.901 274.321C560.827 274.2 560.801 274.054 560.83 273.914C560.858 273.774 560.939 273.651 561.055 273.569C561.276 273.465 561.572 273.637 561.71 273.953Z" fill="#080435"/>
<path d="M554.903 293.224L552.055 298.637L552.315 298.778L555.164 293.365L554.903 293.224Z" fill="#333333"/>
<path d="M416.209 351.202C415.681 349.275 414.937 347.416 413.989 345.662C413.989 345.662 406.433 345.706 406.07 346.378C405.227 347.93 404.245 351.374 403.429 352.942C403.078 353.622 402.045 355.994 402.668 356.438C403.208 356.838 404.911 355.33 405.641 354.522C406.263 359.55 409.401 366.598 408.849 355.97H408.869C409.023 357.038 409.878 362.986 411.21 362.218C412.393 361.538 411.948 357.254 411.711 355.494H411.758C412.153 357.266 413.209 361.494 414.124 360.502C415.267 359.234 414.912 354.526 414.912 354.526C414.912 354.526 415.515 360.526 417.009 359.234C418.03 358.346 416.792 353.55 416.441 351.862C416.39 351.634 416.312 351.412 416.209 351.202V351.202Z" fill="#FCBDB6"/>
<path d="M356.319 319.918C349.929 321.142 337.291 323.65 327.846 316.95C322.513 313.17 318.263 307.89 318.086 307.75L325.067 297.682L321.575 302.714L325.059 297.674C328.694 300.334 334.713 308.45 343.141 306.362C346.968 305.414 351.419 304.826 356.031 297.934L368.196 302.238C364.372 309.978 365.488 318.542 356.319 319.918Z" fill="#BCECF7"/>
<path d="M334.611 309.09C334.611 309.09 330.638 303.134 326.601 301.302C322.565 299.47 320.006 300.986 320.006 300.986L315.67 299.246C315.67 299.246 315.051 315.794 326.313 312.878C327.2 312.666 334.611 309.09 334.611 309.09Z" fill="#FCBDB6"/>
<path d="M316.32 290.618L320.455 314.618C320.522 314.992 320.661 315.349 320.865 315.667C321.07 315.985 321.334 316.259 321.644 316.472C321.954 316.686 322.303 316.834 322.67 316.908C323.037 316.983 323.415 316.982 323.782 316.906L334.867 314.646C335.582 314.504 336.213 314.084 336.626 313.476C337.04 312.867 337.202 312.118 337.078 311.39L333.002 287.75C332.872 287.009 332.457 286.352 331.85 285.92C331.243 285.488 330.492 285.318 329.762 285.446L318.614 287.358C318.252 287.419 317.906 287.551 317.595 287.748C317.283 287.945 317.013 288.202 316.8 288.505C316.587 288.808 316.435 289.15 316.353 289.513C316.27 289.875 316.259 290.251 316.32 290.618V290.618Z" fill="#24555E"/>
<path d="M318.051 289.867C318.054 289.718 318.101 289.573 318.185 289.451C318.269 289.329 318.387 289.236 318.524 289.182C318.661 289.128 318.81 289.116 318.953 289.149C319.097 289.181 319.227 289.256 319.328 289.364C319.429 289.472 319.497 289.608 319.522 289.754C319.547 289.901 319.529 290.052 319.469 290.188C319.41 290.324 319.312 290.439 319.188 290.519C319.063 290.598 318.919 290.639 318.772 290.635C318.576 290.629 318.391 290.546 318.255 290.402C318.12 290.258 318.047 290.065 318.051 289.867V289.867Z" fill="#8BC0CC"/>
<path d="M313.767 299.811C313.767 299.811 312.308 296.587 315.241 295.267C318.974 293.587 325.226 295.095 322.873 296.195C320.792 297.167 317.5 297.835 317.5 297.835C317.5 297.835 325.889 296.235 325.62 298.119C325.352 300.003 318.131 301.247 318.131 301.247C318.131 301.247 326.44 300.483 325.62 302.163C324.801 303.843 318.241 305.031 318.241 305.031C318.241 305.031 326.322 303.831 325.337 305.771C324.351 307.711 320.035 307.459 318.19 307.771C316.444 308.071 315.687 307.039 315.517 305.323C315.517 305.323 314.366 303.723 314.536 302.563C314.603 302.123 314.141 301.763 314.051 301.479C313.915 300.931 313.82 300.374 313.767 299.811V299.811Z" fill="#FCBDB6"/>
<path d="M399.302 346.148C399.255 347.884 388.836 348.572 375.95 348.148C363.064 347.724 352.763 345.948 352.811 344.212C352.858 342.476 363.221 341.46 376.111 341.864C389.002 342.268 399.345 344.412 399.302 346.148Z" fill="#333333"/>
<path d="M396.144 297.023C396.144 297.023 393.866 287.927 377.053 287.823C352.807 287.691 355.054 310.123 352.811 344.223C352.811 344.223 367.51 338.043 399.302 346.139C399.302 346.147 401.411 310.919 396.144 297.023Z" fill="#BCECF7"/>
<path d="M402.353 295.718L391.371 301.834C391.371 301.834 366.804 307.294 360.418 306.234C354.032 305.174 352.811 302.55 352.811 302.55C352.811 302.55 359.606 290.114 371.164 288.222C372.248 288.042 373.376 287.91 374.542 287.822C376.488 287.688 378.441 287.727 380.38 287.938C395.029 289.614 402.353 295.718 402.353 295.718Z" fill="#BCECF7"/>
<path d="M379.364 285.753L378.095 281.625L377.729 280.425L375.556 273.365L375.269 280.389L375.099 284.605L375.044 285.937C375.009 286.845 374.461 287.037 373.79 287.821C373.522 288.141 371.792 290.073 373.755 290.949C376.203 292.037 380.776 290.389 382.514 288.229C382.498 288.229 379.774 287.085 379.364 285.753Z" fill="#FCBDB6"/>
<path d="M405.598 349.138C404.585 337.938 402.267 321.91 396.958 309.218C395.728 306.278 395.215 305.174 394.257 303.569C393.469 302.277 394.868 299.437 397.048 298.085C399.094 296.813 402.279 297.021 402.784 297.649C403.643 298.721 404.558 300.769 405.981 304.026C410.924 315.33 413.888 329.938 415.09 348.77L405.598 349.138Z" fill="#FCBDB6"/>
<path d="M369.967 270.715C369.698 271.984 369.698 273.297 369.967 274.567C370.409 276.711 372.573 271.443 372.573 271.443L369.967 270.715Z" fill="#5C305D"/>
<path d="M382.119 276.893C382.678 272.752 380.368 269.011 376.961 268.537C373.553 268.064 370.337 271.036 369.778 275.178C369.219 279.319 371.528 283.06 374.936 283.534C378.344 284.007 381.56 281.034 382.119 276.893Z" fill="#FCBDB6"/>
<path d="M375.56 275.686C375.542 275.675 375.528 275.661 375.517 275.643C375.507 275.626 375.501 275.606 375.501 275.586C375.499 275.569 375.501 275.552 375.506 275.536C375.511 275.52 375.518 275.506 375.529 275.493C375.54 275.48 375.553 275.47 375.568 275.462C375.582 275.455 375.598 275.451 375.615 275.45C375.914 275.406 376.219 275.465 376.483 275.616C376.746 275.767 376.952 276.003 377.069 276.286C377.077 276.3 377.082 276.316 377.084 276.333C377.085 276.349 377.084 276.366 377.078 276.382C377.073 276.398 377.065 276.412 377.054 276.425C377.043 276.437 377.029 276.447 377.014 276.454C376.984 276.466 376.95 276.467 376.919 276.457C376.888 276.447 376.862 276.426 376.845 276.398C376.528 276.037 376.102 275.794 375.635 275.706C375.608 275.706 375.582 275.699 375.56 275.686V275.686Z" fill="#080435"/>
<path d="M376.107 277.319C376.024 277.611 375.792 277.799 375.579 277.743C375.467 277.687 375.38 277.591 375.336 277.472C375.292 277.354 375.294 277.223 375.342 277.107C375.421 276.815 375.658 276.623 375.866 276.683C376.075 276.743 376.186 277.023 376.107 277.319Z" fill="#080435"/>
<path d="M370.884 275.306C370.868 275.302 370.854 275.294 370.842 275.283C370.83 275.272 370.822 275.258 370.817 275.242C370.807 275.212 370.806 275.179 370.814 275.148C370.823 275.118 370.84 275.09 370.865 275.07C370.957 274.991 371.065 274.932 371.182 274.896C371.298 274.861 371.42 274.849 371.54 274.863C371.661 274.877 371.778 274.916 371.883 274.977C371.988 275.038 372.08 275.12 372.154 275.218C372.172 275.244 372.182 275.276 372.182 275.308C372.182 275.34 372.172 275.371 372.154 275.398C372.137 275.419 372.113 275.433 372.087 275.437C372.06 275.441 372.033 275.434 372.012 275.418C371.852 275.322 371.675 275.261 371.491 275.24C371.307 275.218 371.12 275.237 370.943 275.294C370.926 275.305 370.905 275.309 370.884 275.306V275.306Z" fill="#080435"/>
<path d="M372.035 276.61C372.075 276.914 371.929 277.178 371.712 277.206C371.495 277.234 371.29 277.01 371.251 276.71C371.211 276.41 371.357 276.142 371.578 276.114C371.799 276.086 372 276.31 372.035 276.61Z" fill="#080435"/>
<path d="M386.214 274.855C386.214 274.855 384.133 279.379 381.176 279.711C381.176 279.711 383.565 276.263 378.531 274.163C378.531 274.163 383.155 273.431 386.214 274.855Z" fill="#501506"/>
<path d="M382.052 277.35C381.774 277.55 381.43 277.631 381.093 277.576C380.757 277.52 380.455 277.333 380.254 277.054C380.172 276.905 380.12 276.742 380.1 276.573C380.081 276.404 380.095 276.232 380.141 276.069C380.187 275.905 380.265 275.752 380.369 275.619C380.474 275.486 380.604 275.376 380.751 275.294C381.029 275.095 381.372 275.014 381.707 275.07C382.043 275.125 382.343 275.312 382.544 275.59C382.626 275.738 382.678 275.901 382.698 276.07C382.717 276.239 382.704 276.41 382.658 276.574C382.612 276.737 382.535 276.89 382.431 277.023C382.327 277.156 382.198 277.267 382.052 277.35V277.35Z" fill="#FCBDB6"/>
<path d="M378.532 274.162C378.532 274.162 378.926 277.958 378.169 278.678C377.412 279.398 372.331 279.702 369.966 278.782C369.942 279.97 370.338 281.127 371.082 282.044C371.826 282.961 372.869 283.578 374.022 283.782C374.823 283.918 375.641 283.918 376.442 283.782V283.782C378.098 283.49 379.71 282.798 380.384 281.25C380.593 280.782 379.99 277.886 379.99 277.886C379.99 277.886 379.765 276.186 380.747 275.302C380.751 275.294 379.616 274.266 378.532 274.162Z" fill="#501506"/>
<path d="M378.532 274.161C378.532 274.161 378.95 271.505 376.881 271.313C374.811 271.121 372.454 270.773 371.646 271.313C370.837 271.853 369.864 273.973 369.864 273.973C369.864 273.973 368.728 269.973 370.81 268.285C372.891 266.597 379.514 264.341 383.743 267.305C387.973 270.269 386.215 274.853 386.215 274.853C386.215 274.853 383.195 273.925 378.532 274.161Z" fill="#501506"/>
<path d="M381.402 267.306C381.402 267.306 384.516 264.713 383.815 262.797C383.113 260.881 379.81 261.485 378.533 261.785C377.255 262.085 377.042 264.382 378.067 265.862C379.092 267.342 381.402 267.306 381.402 267.306Z" fill="#501506"/>
<path d="M376.6 429.751C375.873 429.709 375.149 429.873 374.509 430.227C373.87 430.58 373.341 431.108 372.981 431.751C372.635 432.412 372.08 432.934 371.405 433.235C369.154 434.179 362.634 435.035 365.07 437.187C366.469 438.423 373.056 437.623 374.925 437.623C376.793 437.623 378.532 438.423 379.915 437.187C380.743 436.435 380.668 434.059 380.432 432.047C380.351 431.346 379.999 430.706 379.453 430.268C378.908 429.83 378.213 429.63 377.523 429.711C377.304 429.739 377.084 429.751 376.864 429.747L376.6 429.751Z" fill="#333333"/>
<path d="M399.582 428.959C399.582 428.959 399.495 432.307 397.248 433.251C395.001 434.195 388.477 435.047 390.913 437.203C392.309 438.439 398.9 437.639 400.768 437.639C402.637 437.639 404.375 438.439 405.755 437.203C407.276 435.823 405.755 428.959 405.755 428.959C404.806 429.442 403.768 429.714 402.708 429.759C400.618 429.707 399.582 428.959 399.582 428.959Z" fill="#333333"/>
<path d="M359.785 344.711C359.293 344.762 358.833 344.98 358.48 345.331C358.127 345.682 357.901 346.145 357.841 346.643C357.597 348.679 357.554 352.987 358.768 361.923C360.55 375.051 367.29 422.959 368.41 429.344C368.804 431.628 369.269 433.036 372.557 433.516L376.92 433.428C380.468 433.952 381.844 430.108 381.871 427.648L379.014 353.867L390.374 345.139C384.355 344.43 378.301 344.067 372.241 344.051C368.081 344.058 363.923 344.278 359.785 344.711V344.711Z" fill="#24555E"/>
<path d="M370.478 347.16L395.522 428.172C396.02 429.816 397.016 431.259 398.368 432.296C399.72 433.333 401.36 433.911 403.055 433.948L404.56 433.972C405.401 433.979 406.232 433.797 406.995 433.439C407.757 433.08 408.431 432.554 408.969 431.899C409.507 431.244 409.895 430.476 410.104 429.65C410.314 428.824 410.34 427.962 410.182 427.124L396.484 351C396.282 350.096 395.774 346.095 394.907 345.843C390.212 344.479 370.017 343.807 370.478 347.16Z" fill="#24555E"/>
<path d="M381.671 383.371L376.302 366.883C375.11 363.197 372.611 360.092 369.289 358.171L369.494 357.799C372.904 359.773 375.471 362.962 376.696 366.747L382.081 383.235L381.671 383.371Z" fill="#333333"/>
<path d="M387.864 289.894C387.864 289.894 390.477 287.462 387.336 286.606C386.094 286.266 384.241 283.178 382.514 283.446C380.788 283.714 379.755 293.51 372.829 296.538C372.829 296.538 371.122 298.038 373.901 297.97C376.681 297.902 387.864 289.894 387.864 289.894Z" fill="#24555E"/>
<path d="M372.829 296.539C372.829 296.539 369.36 293.103 369.967 289.895C370.574 286.687 368.808 283.943 367.945 285.395C367.081 286.847 366.092 285.943 365.895 287.759C365.698 289.575 368.378 298.507 370.81 298.507C373.243 298.507 372.829 296.539 372.829 296.539Z" fill="#24555E"/>
<path d="M373.616 297.215C373.616 297.215 375.859 298.231 375.027 300.639C374.195 303.047 375.358 304.015 375.358 304.015C375.358 304.015 372.638 304.147 372.311 301.571C372.225 300.793 372.296 300.005 372.52 299.256C372.745 298.507 373.117 297.812 373.616 297.215V297.215Z" fill="#24555E"/>
<path d="M372.359 297.215C372.359 297.215 369.513 298.195 369.391 300.059C369.269 301.923 370.901 302.371 371.473 301.259C372.044 300.147 373.238 297.975 373.238 297.975L372.359 297.215Z" fill="#24555E"/>
<path d="M380.393 281.241C380.393 281.241 380.374 283.853 378.533 285.321C376.692 286.789 377.91 288.065 376.294 290.149C374.677 292.233 376.601 292.277 373.735 293.793C370.87 295.309 368.705 293.933 369.269 291.617C369.833 289.301 367.341 289.913 368.516 286.977C369.691 284.041 370.546 285.841 369.557 282.717C368.567 279.593 369.951 278.781 369.951 278.781C369.951 278.781 371.528 278.893 372.813 279.121C374.098 279.349 375.245 278.949 376.136 279.237C377.027 279.525 380.393 281.241 380.393 281.241Z" fill="#501506"/>
<path d="M371.217 280.154C372.546 280.479 373.918 280.587 375.281 280.474C375.281 280.474 374.969 282.474 372.821 282.074C371.572 281.83 371.217 280.154 371.217 280.154Z" fill="white"/>
<path d="M415.089 344.727C415.089 344.727 408.541 345.431 405.151 344.727C405.151 344.727 404.71 346.479 405.419 347.283C405.419 347.283 413.26 347.879 415.089 347.283C415.089 347.283 416.437 345.967 415.089 344.727Z" fill="#333333"/>
<path d="M410.833 348.738H410.955C412.249 348.738 413.297 347.675 413.297 346.362V345.914C413.297 344.602 412.249 343.538 410.955 343.538H410.833C409.54 343.538 408.492 344.602 408.492 345.914V346.362C408.492 347.675 409.54 348.738 410.833 348.738Z" fill="#8BC0CC"/>
<path d="M402.354 295.718C402.354 295.718 407.901 299.022 413.297 320.738C418.694 342.455 414.641 342.846 414.641 342.846C414.641 342.846 407.361 342.99 405.019 342.146C402.678 341.302 401.424 321.846 396.741 313.934C392.058 306.022 390.414 293.902 402.354 295.718Z" fill="#BCECF7"/>
<path d="M372.269 311.266C372.27 311.099 372.223 310.936 372.133 310.797C372.043 310.658 371.915 310.549 371.763 310.484C371.612 310.419 371.446 310.402 371.285 310.433C371.123 310.465 370.975 310.544 370.859 310.661C370.742 310.778 370.662 310.928 370.63 311.091C370.597 311.254 370.613 311.424 370.676 311.578C370.738 311.731 370.844 311.863 370.98 311.956C371.117 312.048 371.277 312.098 371.441 312.098C371.549 312.098 371.657 312.077 371.757 312.036C371.857 311.994 371.948 311.933 372.025 311.856C372.102 311.779 372.163 311.687 372.205 311.586C372.247 311.484 372.268 311.376 372.269 311.266V311.266Z" fill="#5C305D"/>
<path d="M372.269 321.41C372.27 321.244 372.223 321.081 372.133 320.942C372.043 320.802 371.915 320.694 371.763 320.629C371.612 320.564 371.446 320.546 371.285 320.578C371.123 320.609 370.975 320.689 370.859 320.806C370.742 320.923 370.662 321.072 370.63 321.236C370.597 321.399 370.613 321.568 370.676 321.722C370.738 321.876 370.844 322.008 370.98 322.1C371.117 322.193 371.277 322.242 371.441 322.242C371.659 322.242 371.869 322.155 372.024 321.999C372.179 321.843 372.267 321.632 372.269 321.41V321.41Z" fill="#5C305D"/>
<path d="M372.269 333.43C372.27 333.264 372.223 333.1 372.133 332.961C372.043 332.822 371.915 332.713 371.763 332.648C371.612 332.583 371.446 332.566 371.285 332.597C371.123 332.629 370.975 332.708 370.859 332.825C370.742 332.942 370.662 333.092 370.63 333.255C370.597 333.418 370.613 333.588 370.676 333.742C370.738 333.895 370.844 334.027 370.98 334.12C371.117 334.212 371.277 334.262 371.441 334.262C371.549 334.262 371.657 334.241 371.757 334.2C371.857 334.158 371.948 334.097 372.025 334.02C372.102 333.943 372.163 333.851 372.205 333.75C372.247 333.648 372.268 333.54 372.269 333.43V333.43Z" fill="#5C305D"/>
<path d="M399.516 321.742L399.91 321.642C398.81 317.132 397.36 312.719 395.574 308.441L395.18 308.613C396.962 312.867 398.412 317.257 399.516 321.742V321.742Z" fill="#5C305D"/>
<path d="M354.377 320.59C354.838 313.034 358.567 303.326 358.603 303.23L358.209 303.078C358.169 303.174 354.416 312.942 353.955 320.562L354.377 320.59Z" fill="#5C305D"/>
<path d="M239.082 228.993C239.082 228.993 238.179 234.993 235.771 238.029C234.194 240.029 229.81 244.029 232.921 245.349C235.408 246.409 240.193 241.693 241.747 240.517C243.3 239.341 245.641 237.121 245.121 235.229C244.045 231.305 244.4 226.373 244.4 226.373L239.082 228.993Z" fill="#333333"/>
<path d="M256.493 224.35C256.493 224.35 257.696 230.282 256.493 233.99C255.705 236.438 252.946 241.714 256.332 241.862C259.024 241.978 261.894 235.862 262.946 234.218C263.999 232.574 265.438 229.658 264.302 228.066C261.937 224.766 260.589 220.018 260.589 220.018L256.493 224.35Z" fill="#333333"/>
<path d="M254.807 228.543C222.551 206.706 224.143 187.578 228.613 180.098C233.805 171.41 242.016 164.542 254.63 161.478C257.667 160.75 260.749 160.229 263.854 159.918C264.766 159.824 265.686 159.929 266.554 160.225C267.423 160.52 268.219 161 268.891 161.633C269.562 162.265 270.093 163.035 270.448 163.892C270.803 164.749 270.974 165.673 270.95 166.602L270.662 177.742H270.685C265.305 177.63 248.973 179.294 244.696 188.142C243.805 189.978 265.522 215.858 264.71 220.503C263.795 225.735 257.961 230.667 254.807 228.543Z" fill="#24555E"/>
<path d="M242.3 231.813C241.421 231.817 240.551 231.639 239.743 231.289C238.936 230.939 238.207 230.424 237.603 229.777C236.999 229.13 236.531 228.365 236.23 227.527C235.929 226.69 235.8 225.799 235.851 224.909C236.34 216.557 237.869 202.337 242.662 191.593C245.382 185.501 249.703 179.961 255.509 175.129C260.276 171.244 265.511 167.991 271.088 165.448C280.994 160.824 288.129 161.472 288.129 161.472L293.545 169.573C293.47 169.573 295.063 177.745 283.615 185.021C277.308 189.021 264.603 191.485 259.38 201.857C255.651 209.261 254.228 219.081 253.755 225.941C253.644 227.523 252.948 229.005 251.806 230.088C250.664 231.172 249.161 231.778 247.598 231.785L242.3 231.813Z" fill="#24555E"/>
<path d="M249.667 132.758C249.667 132.758 243.013 143.158 240.632 158.542C239.055 168.73 257.326 156.87 257.326 156.87L258.138 135.582L249.667 132.758Z" fill="#FCBDB6"/>
<path d="M282.929 126.885C282.929 126.885 277.86 118.085 266.18 120.793C254.5 123.501 249.734 135.593 248.898 164.673C248.898 164.673 255.915 177.274 287.829 174.817C291.377 174.545 296.434 174.069 294.704 168.249C291.491 157.437 288.397 135.865 282.929 126.885Z" fill="#BCECF7"/>
<path d="M295.779 129.465L283.76 131.757C283.76 131.757 262.75 138.061 256.868 138.113C250.987 138.165 248.551 133.797 248.551 133.797C252.101 128.341 257.233 124.138 263.239 121.769C264.2 121.394 265.18 121.072 266.175 120.805C267.875 120.291 269.631 119.993 271.402 119.917C291.238 119.673 295.779 129.465 295.779 129.465Z" fill="#BCECF7"/>
<path d="M295.779 129.466C296.039 130.426 293.521 132.03 290.154 133.066C286.788 134.102 283.847 134.13 283.587 133.17C283.327 132.21 285.846 130.602 289.212 129.57C292.578 128.538 295.519 128.49 295.779 129.466Z" fill="#333333"/>
<path d="M293.702 156.53C288.578 164.69 278.403 169.898 267.721 169.558L268.86 160.862C277.138 159.33 283.492 153.858 284.675 149.262C286.161 143.47 285.653 137.822 284.943 133.582C284.908 133.386 284.926 133.184 284.996 132.998C285.065 132.812 285.183 132.649 285.337 132.526C286.394 131.702 289.137 130.03 294.041 129.93C294.253 129.926 294.461 129.994 294.63 130.124C294.8 130.254 294.921 130.437 294.975 130.646C297.045 138.474 298.283 149.25 293.702 156.53Z" fill="#FCBDB6"/>
<path d="M288.298 159.109C288.125 159.109 287.953 159.074 287.793 159.005C286.942 158.637 286.646 157.377 287.139 156.205C287.384 155.561 287.868 155.04 288.487 154.753C288.658 154.679 288.843 154.641 289.029 154.641C289.215 154.641 289.4 154.679 289.571 154.753C290.423 155.121 290.718 156.381 290.226 157.553C289.979 158.196 289.495 158.717 288.877 159.005C288.693 159.077 288.496 159.112 288.298 159.109V159.109ZM289.067 154.837C288.894 154.84 288.722 154.875 288.562 154.941C287.996 155.209 287.554 155.69 287.328 156.281C286.883 157.353 287.127 158.489 287.872 158.813C288.019 158.877 288.177 158.91 288.337 158.91C288.497 158.91 288.655 158.877 288.802 158.813C289.369 158.547 289.812 158.068 290.036 157.477C290.482 156.405 290.237 155.269 289.492 154.945C289.359 154.879 289.215 154.842 289.067 154.837V154.837Z" fill="#F9A6A0"/>
<path d="M268.86 160.861C268.86 160.861 261.185 158.385 258.749 159.553C256.313 160.721 254.066 164.093 255.73 163.693C256.998 163.33 258.222 162.824 259.38 162.185C259.38 162.185 255.245 164.753 256.258 165.473C257.271 166.193 260.842 163.925 260.842 163.925C260.842 163.925 256.163 167.381 257.334 167.749C258.505 168.117 262.045 165.465 262.045 165.465C262.045 165.465 257.815 168.857 259.187 169.249C260.559 169.641 262.663 166.425 263.673 167.149C264.682 167.873 267.264 171.181 269.586 168.573L268.86 160.861Z" fill="#FCBDB6"/>
<path d="M259.442 162.265L259.316 162.113C259.36 162.073 260.436 161.173 261.287 161.417L261.232 161.613C260.479 161.389 259.454 162.265 259.442 162.265Z" fill="#F9A6A0"/>
<path d="M260.909 164.002L260.775 163.85C261.425 163.3 262.248 163.006 263.093 163.022V163.222C262.297 163.212 261.523 163.488 260.909 164.002V164.002Z" fill="#F9A6A0"/>
<path d="M262.107 165.545L261.977 165.389C262.032 165.345 263.297 164.273 264.188 164.613L264.117 164.805C263.337 164.505 262.119 165.533 262.107 165.545Z" fill="#F9A6A0"/>
<path d="M259.435 172.973H234.806C234.555 172.974 234.31 172.895 234.106 172.747C233.902 172.599 233.748 172.39 233.667 172.149L228.542 156.637C228.479 156.455 228.459 156.259 228.487 156.067C228.514 155.875 228.586 155.693 228.697 155.536C228.809 155.379 228.956 155.251 229.127 155.164C229.298 155.078 229.487 155.034 229.678 155.037H253.365C253.887 155.038 254.397 155.205 254.821 155.515C255.245 155.825 255.563 156.262 255.73 156.765L260.551 171.373C260.614 171.554 260.633 171.748 260.607 171.938C260.581 172.129 260.51 172.31 260.401 172.467C260.292 172.623 260.147 172.751 259.979 172.839C259.811 172.928 259.624 172.974 259.435 172.973V172.973Z" fill="#333333"/>
<path d="M257.888 172.973H233.255C233.004 172.976 232.759 172.898 232.555 172.75C232.351 172.601 232.199 172.391 232.12 172.149L226.995 156.637C226.932 156.455 226.913 156.259 226.94 156.067C226.967 155.875 227.039 155.693 227.151 155.536C227.262 155.379 227.41 155.251 227.58 155.164C227.751 155.078 227.94 155.034 228.131 155.037H251.818C252.341 155.038 252.85 155.205 253.274 155.515C253.698 155.825 254.016 156.262 254.183 156.765L259.004 171.373C259.067 171.554 259.086 171.748 259.06 171.938C259.034 172.129 258.964 172.31 258.854 172.467C258.745 172.623 258.6 172.751 258.432 172.839C258.264 172.928 258.077 172.974 257.888 172.973V172.973Z" fill="#333333"/>
<path d="M240.631 163.506C240.631 162.914 241.301 162.674 241.884 162.674C242.468 162.674 243.422 163.322 243.418 164.146C243.418 165.038 242.724 165.154 242.141 165.154C241.557 165.154 240.631 164.266 240.631 163.506Z" fill="#DAEBE8"/>
<path d="M233.244 170.781H266.944C267.323 170.781 267.687 170.934 267.956 171.207C268.224 171.479 268.375 171.848 268.375 172.233C268.375 172.43 268.298 172.618 268.161 172.757C268.024 172.895 267.839 172.973 267.645 172.973H233.244V170.781Z" fill="#333333"/>
<path d="M256.139 162.889C256.139 162.845 254.917 158.245 254.133 156.817C253.348 155.389 252.414 155.129 252.402 155.125L252.446 154.969C252.489 154.969 253.471 155.269 254.275 156.737C255.079 158.205 256.246 162.657 256.293 162.849L256.139 162.889Z" fill="#366F90"/>
<path d="M259.778 170.861C258.863 170.861 258.639 170.461 258.627 170.433L256.703 164.605L256.853 164.553L258.773 170.369C258.773 170.369 258.981 170.701 259.778 170.701V170.861Z" fill="#366F90"/>
<path d="M237.076 213.39H236.875C237.342 207.984 238.279 202.63 239.674 197.39C241.779 189.578 245.863 179.306 253.368 174.75L253.471 174.922C246.02 179.446 241.96 189.666 239.867 197.442C238.473 202.664 237.539 208.001 237.076 213.39Z" fill="#333333"/>
<path d="M253.517 227.589H253.312C253.374 220.51 254.685 213.499 257.183 206.889L257.365 206.965C254.881 213.552 253.578 220.536 253.517 227.589Z" fill="#333333"/>
<path d="M261.272 121.377C261.272 121.377 264.004 119.953 264.299 118.305C264.595 116.657 265.695 117.049 266.27 116.581C266.846 116.113 264.729 111.913 264.729 111.913L258.65 110.312L259.971 117.913L261.272 121.377Z" fill="#501506"/>
<path d="M273.558 119.921C272.935 119.916 272.324 119.743 271.789 119.419C271.254 119.096 270.812 118.634 270.511 118.081L268.599 114.537L268.043 113.509L264.783 107.465L265.855 113.953L266.502 117.845L266.683 118.953C266.749 119.387 266.656 119.83 266.421 120.199C266.187 120.567 265.827 120.836 265.41 120.953V120.953C265.016 121.785 264.499 123.441 266.521 123.889C268.887 124.413 272.458 122.209 273.594 119.889L273.558 119.921Z" fill="#FCBDB6"/>
<path d="M268.595 114.428C268.597 114.464 268.597 114.5 268.595 114.536C268.638 116.656 266.51 117.852 266.51 117.852L265.863 113.96C266.518 113.64 267.46 113.288 268.051 113.516C268.224 113.592 268.369 113.721 268.466 113.884C268.564 114.047 268.609 114.238 268.595 114.428V114.428Z" fill="#E1986C"/>
<path d="M258.544 109.12C258.15 104.936 260.543 101.288 263.886 100.968C267.228 100.648 270.248 103.768 270.634 107.956C271.021 112.144 268.636 115.784 265.297 116.108C261.958 116.432 258.935 113.3 258.544 109.12Z" fill="#FCBDB6"/>
<path d="M261.791 113.748C263.194 113.609 264.566 113.243 265.855 112.664C265.855 112.664 266.222 114.712 263.995 115.064C262.702 115.272 261.791 113.748 261.791 113.748Z" fill="white"/>
<path d="M264.01 108.664C263.989 108.659 263.97 108.65 263.952 108.637C263.935 108.624 263.922 108.607 263.912 108.588C263.895 108.555 263.892 108.517 263.903 108.482C263.914 108.446 263.938 108.417 263.971 108.4C264.256 108.229 264.589 108.159 264.918 108.201C265.247 108.243 265.553 108.395 265.788 108.632C265.812 108.659 265.826 108.694 265.826 108.73C265.826 108.766 265.812 108.801 265.788 108.828C265.76 108.851 265.725 108.864 265.689 108.864C265.653 108.864 265.618 108.851 265.591 108.828C265.123 108.596 264.592 108.527 264.081 108.632C264.061 108.649 264.036 108.66 264.01 108.664V108.664Z" fill="#080435"/>
<path d="M265.534 109.997C265.573 110.329 265.415 110.625 265.179 110.653C264.942 110.681 264.714 110.441 264.674 110.109C264.635 109.777 264.789 109.481 265.025 109.453C265.262 109.425 265.486 109.665 265.534 109.997Z" fill="#080435"/>
<path d="M261.639 110.637C261.702 110.965 261.56 111.269 261.327 111.313C261.095 111.357 260.85 111.129 260.787 110.801C260.744 110.669 260.752 110.525 260.811 110.399C260.87 110.273 260.974 110.175 261.103 110.125C261.335 110.077 261.592 110.309 261.639 110.637Z" fill="#080435"/>
<path d="M267.07 103.409C264.872 104.191 262.988 105.683 261.707 107.656C260.425 109.63 259.816 111.975 259.975 114.333C259.993 114.599 260.017 114.887 260.046 115.197C260.046 115.197 263.235 115.597 263.692 118.697C263.838 119.669 261.216 121.597 261.011 121.529C259.494 121.009 255.359 117.777 255.556 110.557C255.753 103.337 257.988 97.8286 264.429 96.9886C270.87 96.1486 270.417 100.589 270.417 100.589C269.682 101.915 268.49 102.919 267.07 103.409Z" fill="#501506"/>
<path d="M266.168 103.509C266.168 103.509 266.282 103.573 266.472 103.693C267.209 104.165 269.042 105.545 269.554 107.813C270.205 110.673 267.627 112.741 268.588 114.909C269.55 117.078 271.308 114.369 272.96 114.597C274.612 114.825 275.719 113.945 275.526 110.657C275.333 107.369 273.859 99.7934 270.035 100.161L266.168 103.509Z" fill="#501506"/>
<path d="M270.63 109.109C270.008 109.841 269.054 110.001 268.506 109.469C267.958 108.937 268.013 107.913 268.636 107.185C269.259 106.457 270.212 106.292 270.76 106.825C271.308 107.357 271.253 108.381 270.63 109.109Z" fill="#FCBDB6"/>
<path d="M258.752 118.125C258.735 118.124 258.719 118.118 258.706 118.107C258.693 118.096 258.684 118.081 258.681 118.065C257.794 113.373 259.044 108.62 260.679 105.992C262.012 103.844 263.502 102.9 264.519 102.484C265.123 102.212 265.778 102.075 266.439 102.084C266.458 102.086 266.476 102.096 266.488 102.111C266.5 102.126 266.507 102.145 266.506 102.164C266.503 102.183 266.493 102.201 266.479 102.213C266.464 102.226 266.446 102.233 266.427 102.232C266.395 102.232 263.305 102.036 260.802 106.064C259.185 108.672 257.944 113.381 258.831 118.033C258.832 118.042 258.832 118.052 258.83 118.061C258.828 118.071 258.824 118.079 258.819 118.087C258.813 118.095 258.806 118.102 258.798 118.107C258.79 118.112 258.781 118.115 258.772 118.117L258.752 118.125Z" fill="white"/>
<path d="M272.769 112.06H272.742C272.725 112.053 272.711 112.04 272.703 112.023C272.695 112.006 272.693 111.986 272.698 111.968C273.846 108.768 272.627 103.568 271.283 102.112C269.939 100.656 268.216 101.66 268.13 101.712C268.121 101.717 268.112 101.72 268.103 101.722C268.093 101.723 268.084 101.722 268.075 101.72C268.065 101.717 268.057 101.713 268.049 101.706C268.042 101.7 268.036 101.693 268.031 101.684C268.026 101.676 268.022 101.667 268.02 101.657C268.019 101.647 268.019 101.637 268.022 101.628C268.025 101.618 268.029 101.609 268.036 101.602C268.042 101.594 268.05 101.588 268.059 101.584C268.059 101.584 269.978 100.512 271.374 102.02C272.769 103.528 273.984 108.796 272.821 112.02C272.816 112.031 272.809 112.04 272.8 112.047C272.791 112.054 272.78 112.058 272.769 112.06V112.06Z" fill="white"/>
<path d="M257.803 112.325C257.783 112.325 257.765 112.318 257.751 112.304C257.737 112.291 257.729 112.272 257.728 112.253C257.694 110.678 257.781 109.102 257.988 107.541C258.441 104.241 259.395 102.169 260.814 101.385C262.142 100.617 263.689 100.335 265.198 100.585C265.841 100.686 266.461 100.901 267.031 101.221C267.039 101.226 267.046 101.232 267.051 101.24C267.057 101.248 267.061 101.257 267.063 101.266C267.065 101.275 267.066 101.285 267.064 101.294C267.063 101.304 267.059 101.313 267.054 101.321C267.05 101.33 267.044 101.337 267.036 101.343C267.029 101.349 267.02 101.353 267.01 101.356C267.001 101.358 266.991 101.358 266.982 101.356C266.972 101.354 266.963 101.351 266.956 101.345C266.012 100.854 264.962 100.611 263.901 100.637C262.841 100.664 261.804 100.959 260.885 101.497C257.59 103.321 257.87 112.141 257.873 112.233C257.874 112.243 257.873 112.253 257.869 112.262C257.866 112.271 257.861 112.279 257.854 112.287C257.848 112.294 257.84 112.299 257.831 112.303C257.822 112.307 257.812 112.309 257.803 112.309V112.325Z" fill="white"/>
<path d="M219.707 380.139C220.476 381.535 228.218 393.703 226.598 405.603L218.17 402.511L214.322 386.471L219.707 380.139Z" fill="#FCBDB6"/>
<path d="M186.064 375.155C186.064 375.155 191.239 365.735 203.842 368.355C216.444 370.975 223.315 389.259 219.901 425.507C219.901 425.507 199.884 417.431 173.855 423.939C173.855 423.923 178.14 388.819 186.064 375.155Z" fill="#49ADB7"/>
<path d="M176.445 371.348L185.303 380.32C185.303 380.32 208.008 386.544 214.315 386.472C220.622 386.4 223.102 381.72 223.102 381.72C219.121 376.002 213.503 371.665 207.011 369.296C205.969 368.922 204.908 368.603 203.834 368.34C201.986 367.899 200.104 367.622 198.209 367.512C187.065 366.84 176.445 371.348 176.445 371.348Z" fill="#49ADB7"/>
<path d="M176.445 371.348C175.03 372.912 177.214 374.616 179.658 377.092C182.102 379.568 184.633 381.016 185.303 380.32C185.973 379.624 184.534 377.052 182.09 374.576C179.646 372.1 177.103 370.632 176.445 371.348Z" fill="#333333"/>
<path d="M184.131 380.355C184.131 380.355 184.265 378.563 182.046 376.275C180.838 375.097 179.425 374.155 177.879 373.499C177.719 373.428 177.547 373.392 177.373 373.391C177.198 373.39 177.025 373.425 176.865 373.494C176.704 373.562 176.559 373.664 176.438 373.791C176.317 373.918 176.222 374.069 176.161 374.235L175.447 376.095L178.754 378.255L184.131 380.355Z" fill="#FCBDB6"/>
<path d="M199.782 413.588C199.782 413.588 172.46 398.564 162.669 414.952C155.415 427.088 166.315 438.384 206.736 437.236C206.736 437.236 210.733 435.34 209.759 425.492C209.373 421.588 199.782 413.588 199.782 413.588Z" fill="#24555E"/>
<path d="M199.781 413.589C199.781 413.589 236.173 398.464 243.371 407.92C251.649 418.785 243.714 437.237 205.355 430.641L200.68 425.493L199.781 413.589Z" fill="#24555E"/>
<path d="M206.798 437.299L206.711 437.175C210.956 434.099 209.813 426.211 209.707 425.547L182.113 415.359L182.169 415.215L209.833 425.431V425.475C209.849 425.563 211.268 434.051 206.798 437.299Z" fill="#333333"/>
<path d="M209.99 428.199C209.99 428.199 216.691 428.475 219.845 430.043C222.998 431.611 221.315 435.439 214.917 435.335C208.52 435.231 209.004 434.267 209.004 434.267C209.004 434.267 210.223 430.907 209.99 428.199Z" fill="#333333"/>
<path d="M201.406 414.308C203.625 414.308 205.45 413.74 206.925 412.608C209.715 410.468 210.236 407.06 209.83 404.787L207.157 403.212C207.023 402.467 201.867 405.212 201.875 405.212C201.883 405.212 199.411 405.935 190.96 401.551C185.074 398.499 182.106 394.167 181.893 388.307C181.732 383.907 183.671 381.411 184.129 380.335C184.192 380.195 181.286 377.239 181.369 376.935L179.189 375.815C179.26 375.559 177.096 374.695 177.128 374.615L175.444 376.067C173.725 380.023 172.916 384.323 173.079 388.643C173.316 395.043 175.921 403.872 186.979 409.608C193.002 412.76 197.732 414.308 201.406 414.308Z" fill="#FCBDB6"/>
<path d="M203.198 414.668H226.779C227.02 414.667 227.254 414.589 227.45 414.446C227.645 414.302 227.791 414.1 227.867 413.868L232.766 399.02C232.823 398.846 232.839 398.66 232.811 398.479C232.783 398.297 232.713 398.125 232.607 397.977C232.501 397.828 232.361 397.707 232.2 397.624C232.038 397.542 231.86 397.499 231.679 397.5H209.001C208.498 397.499 208.008 397.659 207.6 397.956C207.192 398.253 206.886 398.673 206.726 399.156L202.11 413.156C202.055 413.33 202.041 413.515 202.069 413.695C202.098 413.875 202.168 414.046 202.274 414.194C202.38 414.341 202.519 414.461 202.68 414.544C202.84 414.626 203.018 414.669 203.198 414.668V414.668Z" fill="white"/>
<path d="M204.677 414.668H228.257C228.498 414.668 228.734 414.591 228.929 414.447C229.125 414.304 229.27 414.101 229.345 413.868L234.245 399.02C234.302 398.846 234.317 398.66 234.289 398.479C234.262 398.297 234.192 398.125 234.085 397.977C233.979 397.828 233.839 397.707 233.678 397.624C233.517 397.542 233.338 397.499 233.157 397.5H210.483C209.98 397.5 209.49 397.659 209.081 397.956C208.673 398.253 208.366 398.673 208.204 399.156L203.592 413.156C203.537 413.33 203.523 413.514 203.551 413.694C203.58 413.874 203.649 414.045 203.755 414.192C203.861 414.34 203.999 414.46 204.16 414.542C204.32 414.625 204.497 414.668 204.677 414.668V414.668Z" fill="white"/>
<path d="M221.202 405.603C221.202 405.039 220.559 404.803 220 404.803C219.44 404.803 218.529 405.423 218.533 406.211C218.533 407.063 219.196 407.175 219.755 407.175C220.315 407.175 221.202 406.319 221.202 405.603Z" fill="#49ADB7"/>
<path d="M196.009 412.568H228.269V414.668H195.334C195.243 414.668 195.152 414.65 195.067 414.614C194.983 414.579 194.906 414.527 194.841 414.461C194.776 414.395 194.725 414.317 194.69 414.231C194.655 414.145 194.637 414.053 194.637 413.96V413.96C194.637 413.591 194.781 413.237 195.039 412.976C195.296 412.715 195.645 412.568 196.009 412.568Z" fill="white"/>
<path d="M206.357 405.016L206.207 404.976C206.254 404.796 207.39 400.512 208.139 399.124C208.888 397.736 209.849 397.444 209.889 397.432L209.932 397.584C209.932 397.584 209.01 397.856 208.273 399.184C207.536 400.512 206.369 404.972 206.357 405.016Z" fill="#333333"/>
<path d="M202.855 412.667V412.511C203.644 412.511 203.817 412.187 203.821 412.183L205.654 406.627L205.796 406.675L203.959 412.247C203.963 412.267 203.742 412.667 202.855 412.667Z" fill="#333333"/>
<path d="M180.205 401.436C180.117 401.435 180.03 401.423 179.945 401.4C179.311 401.149 178.792 400.669 178.486 400.052C177.891 398.992 177.875 397.892 178.451 397.552C178.648 397.445 178.879 397.422 179.093 397.488C179.725 397.741 180.243 398.22 180.548 398.836C181.147 399.896 181.163 400.996 180.587 401.336C180.47 401.402 180.339 401.436 180.205 401.436ZM178.754 399.896C179.019 400.44 179.471 400.867 180.024 401.096C180.154 401.14 180.295 401.13 180.418 401.068C180.836 400.82 180.769 399.868 180.272 398.992C180.005 398.45 179.555 398.024 179.003 397.792C178.872 397.753 178.731 397.764 178.609 397.824C178.214 398.072 178.262 399.024 178.758 399.9L178.754 399.896Z" fill="#F9A6A0"/>
<path d="M198.02 367.492C199.569 367.444 200.744 367.284 201.635 366.22L204.394 362.928L205.182 361.968L209.913 356.332L207.433 362.924L205.947 366.876L205.474 368.128C205.155 368.98 205.577 369.376 205.868 370.368C205.986 370.768 206.802 373.252 204.686 373.268C202.045 373.268 198.706 370.172 197.984 367.484L198.02 367.492Z" fill="#FCBDB6"/>
<path d="M203.644 360.811C203.644 360.811 198.449 355.743 201.448 351.463C204.448 347.183 205.193 358.331 205.193 358.331L204.357 360.907L203.644 360.811Z" fill="#501506"/>
<path d="M204.434 362.812C204.434 362.852 204.414 362.888 204.406 362.928C203.925 365.148 205.943 366.884 205.943 366.884H205.963L207.449 362.932C206.818 362.452 205.873 361.868 205.21 361.976C204.828 362.024 204.56 362.268 204.434 362.812Z" fill="#333333"/>
<path d="M215.423 360.06C216.606 356.1 214.946 352.06 211.741 351.084C208.537 350.108 204.985 352.492 203.81 356.452C202.635 360.412 204.287 364.452 207.496 365.428C210.705 366.404 214.252 364.02 215.423 360.06Z" fill="#FCBDB6"/>
<path d="M204.91 355.866C204.91 355.866 206.566 357.066 207.954 356.054C209.341 355.042 210.319 354.054 213.429 355.63C216.539 357.206 219.937 356.506 220.564 354.718C221.191 352.93 219.712 351.566 217.761 351.654C215.81 351.742 218.155 350.654 216.815 348.778C215.475 346.902 212.014 348.834 210.307 347.906C208.6 346.978 202.522 346.166 201.43 351.45L204.91 355.866Z" fill="#501506"/>
<path d="M203.612 356.938C203.693 357.084 203.802 357.211 203.932 357.314C204.062 357.416 204.211 357.491 204.37 357.535C204.528 357.578 204.694 357.589 204.857 357.567C205.02 357.545 205.177 357.491 205.319 357.406C205.587 357.203 205.765 356.901 205.814 356.566C205.864 356.23 205.781 355.888 205.583 355.614C205.502 355.47 205.393 355.343 205.263 355.24C205.133 355.138 204.985 355.063 204.827 355.019C204.668 354.975 204.502 354.964 204.339 354.985C204.176 355.006 204.019 355.06 203.877 355.142C203.609 355.346 203.431 355.649 203.381 355.985C203.332 356.322 203.415 356.664 203.612 356.938V356.938Z" fill="#FCBDB6"/>
<path d="M217.13 354.11C215.825 354.11 214.055 352.51 213.977 352.422L214.13 352.25C214.15 352.25 216.22 354.158 217.414 353.85C217.871 353.73 218.131 353.51 218.092 353.274C218.052 353.038 217.725 352.834 217.264 352.874C216.725 352.958 216.173 352.867 215.687 352.614L215.81 352.418C216.255 352.641 216.757 352.719 217.248 352.642C217.871 352.578 218.265 352.894 218.325 353.226C218.384 353.558 218.179 353.882 217.477 354.066C217.363 354.094 217.247 354.109 217.13 354.11V354.11Z" fill="white"/>
<path d="M211.765 349.687C211.321 349.692 210.879 349.613 210.464 349.455C209.962 349.245 209.473 349.007 208.997 348.742C208.118 348.27 207.357 347.858 206.53 348.026L206.486 347.798C207.393 347.622 208.185 348.046 209.104 348.538C209.571 348.8 210.052 349.034 210.546 349.239C212.123 349.867 213.976 348.959 214.094 348.862L214.26 349.019C213.501 349.46 212.64 349.691 211.765 349.687Z" fill="white"/>
<path d="M203.002 351.192C202.972 351.196 202.942 351.196 202.912 351.192C202.837 351.16 202.719 351.072 202.793 350.792V350.756C202.92 350.572 203.582 349.664 204.035 349.956C204.094 349.996 204.217 350.108 204.094 350.356C203.972 350.604 203.353 351.192 203.002 351.192ZM203.002 350.852C202.983 350.94 203.002 350.964 203.002 350.964C203.277 350.886 203.521 350.725 203.704 350.504C203.925 350.272 203.945 350.148 203.937 350.132C203.732 350 203.251 350.48 203.006 350.852H203.002Z" fill="white"/>
<path d="M210.782 358.451C210.801 358.448 210.82 358.441 210.835 358.43C210.851 358.419 210.864 358.404 210.873 358.387C210.889 358.358 210.893 358.323 210.884 358.291C210.875 358.259 210.854 358.232 210.826 358.215C210.577 358.052 210.282 357.98 209.987 358.008C209.693 358.036 209.416 358.164 209.202 358.371C209.177 358.392 209.161 358.422 209.157 358.455C209.153 358.488 209.162 358.52 209.182 358.547C209.206 358.567 209.237 358.578 209.269 358.578C209.3 358.578 209.331 358.567 209.356 358.547C209.778 358.353 210.252 358.307 210.704 358.415C210.714 358.426 210.726 358.435 210.739 358.441C210.753 358.447 210.767 358.45 210.782 358.451V358.451Z" fill="#080435"/>
<path d="M209.648 359.699C209.601 359.995 209.731 360.263 209.944 360.299C210.157 360.335 210.362 360.119 210.409 359.823C210.457 359.527 210.322 359.259 210.11 359.223C209.897 359.187 209.692 359.403 209.648 359.699Z" fill="#080435"/>
<path d="M215.075 360.03C215.091 360.034 215.108 360.034 215.123 360.029C215.138 360.024 215.152 360.015 215.162 360.002C215.184 359.979 215.197 359.95 215.202 359.918C215.207 359.887 215.203 359.855 215.19 359.826C215.14 359.717 215.069 359.619 214.98 359.538C214.891 359.458 214.787 359.398 214.675 359.36C214.562 359.322 214.442 359.309 214.324 359.32C214.206 359.332 214.091 359.368 213.988 359.426C213.96 359.441 213.938 359.465 213.925 359.494C213.911 359.522 213.907 359.555 213.913 359.586C213.915 359.599 213.92 359.612 213.927 359.623C213.935 359.634 213.944 359.643 213.955 359.65C213.967 359.657 213.979 359.661 213.992 359.662C214.005 359.664 214.018 359.662 214.031 359.658C214.21 359.639 214.392 359.658 214.564 359.715C214.735 359.771 214.894 359.864 215.028 359.986C215.032 359.996 215.039 360.006 215.047 360.013C215.055 360.021 215.065 360.027 215.075 360.03Z" fill="#080435"/>
<path d="M213.535 360.736C213.459 360.833 213.422 360.956 213.431 361.08C213.441 361.204 213.496 361.32 213.586 361.404C213.772 361.52 214.039 361.404 214.193 361.148C214.271 361.05 214.308 360.926 214.299 360.801C214.289 360.677 214.233 360.56 214.142 360.476C214.027 360.433 213.9 360.435 213.788 360.484C213.675 360.532 213.584 360.622 213.535 360.736Z" fill="#080435"/>
<path d="M210.019 363.891C209.512 363.914 209.009 363.795 208.564 363.546C208.12 363.298 207.752 362.93 207.5 362.483C207.488 362.463 207.485 362.439 207.491 362.416C207.497 362.394 207.512 362.375 207.531 362.363C207.541 362.357 207.552 362.352 207.563 362.351C207.575 362.349 207.587 362.349 207.598 362.352C207.609 362.355 207.619 362.361 207.628 362.368C207.637 362.375 207.645 362.385 207.65 362.395C208.635 364.159 210.634 363.663 210.721 363.643C210.732 363.64 210.743 363.639 210.755 363.641C210.766 363.642 210.777 363.646 210.787 363.652C210.797 363.658 210.806 363.666 210.812 363.676C210.819 363.685 210.824 363.696 210.827 363.707C210.83 363.718 210.831 363.73 210.829 363.741C210.827 363.752 210.823 363.763 210.817 363.773C210.811 363.783 210.804 363.791 210.794 363.797C210.785 363.804 210.775 363.809 210.764 363.811C210.52 363.868 210.269 363.894 210.019 363.891V363.891Z" fill="#333333"/>
<path d="M207.326 362.79H207.298C207.287 362.787 207.277 362.781 207.269 362.773C207.26 362.766 207.253 362.756 207.248 362.746C207.242 362.736 207.239 362.724 207.238 362.713C207.238 362.701 207.239 362.689 207.243 362.678C207.352 362.415 207.555 362.202 207.811 362.082C207.82 362.076 207.831 362.071 207.842 362.068C207.854 362.066 207.865 362.066 207.877 362.068C207.888 362.07 207.899 362.075 207.909 362.081C207.918 362.088 207.926 362.096 207.933 362.106C207.94 362.113 207.947 362.122 207.951 362.132C207.955 362.141 207.957 362.152 207.957 362.162C207.957 362.173 207.955 362.183 207.951 362.193C207.947 362.202 207.94 362.211 207.933 362.218H207.905C207.687 362.32 207.513 362.499 207.416 362.722C207.412 362.743 207.401 362.762 207.384 362.774C207.367 362.787 207.346 362.793 207.326 362.79Z" fill="#333333"/>
<path d="M217.08 381.296L216.721 381.416L218.113 385.71L218.472 385.59L217.08 381.296Z" fill="#333333"/>
<path d="M214.229 364.979C214.01 364.982 213.792 364.94 213.589 364.855C213.385 364.771 213.201 364.646 213.047 364.487C212.01 363.443 212.061 361.027 213.157 359.099C213.835 357.899 214.781 357.131 215.692 357.007C215.948 356.968 216.211 356.99 216.457 357.073C216.704 357.156 216.928 357.296 217.111 357.483C218.147 358.527 218.1 360.943 217 362.871C216.326 364.071 215.376 364.839 214.466 364.963C214.387 364.974 214.308 364.979 214.229 364.979V364.979ZM215.952 357.251H215.739C214.903 357.367 214.028 358.099 213.374 359.219C212.329 361.047 212.262 363.323 213.22 364.287C213.375 364.446 213.566 364.566 213.775 364.635C213.985 364.705 214.208 364.723 214.426 364.687C215.258 364.575 216.137 363.839 216.791 362.723C217.832 360.891 217.903 358.619 216.941 357.651C216.811 357.521 216.656 357.419 216.486 357.35C216.316 357.281 216.135 357.248 215.952 357.251V357.251Z" fill="white"/>
<g opacity="0.3">
<path opacity="0.3" d="M206.992 356.267C206.101 358.183 206.349 360.515 207.54 361.467C208.73 362.419 210.418 361.651 211.304 359.735C212.191 357.819 211.951 355.487 210.756 354.535C209.562 353.583 207.879 354.351 206.992 356.267Z" fill="white"/>
</g>
<g opacity="0.3">
<path opacity="0.3" d="M213.081 359.251C212.19 361.179 212.293 363.515 213.349 364.475C214.406 365.435 215.955 364.643 216.85 362.719C217.745 360.795 217.618 358.455 216.578 357.499C215.537 356.543 213.972 357.327 213.081 359.251Z" fill="white"/>
</g>
<path d="M208.872 361.992C208.402 361.99 207.946 361.827 207.579 361.528C206.263 360.484 205.975 357.972 206.933 355.928C207.492 354.728 208.36 353.928 209.318 353.692C209.629 353.611 209.955 353.606 210.269 353.675C210.583 353.745 210.876 353.887 211.127 354.092C212.443 355.136 212.735 357.648 211.777 359.692C211.218 360.892 210.346 361.692 209.392 361.928C209.222 361.97 209.047 361.992 208.872 361.992ZM209.83 353.884C209.677 353.885 209.525 353.903 209.377 353.94C208.509 354.148 207.682 354.932 207.165 356.036C206.255 357.98 206.511 360.352 207.737 361.324C207.958 361.504 208.217 361.629 208.494 361.69C208.771 361.751 209.059 361.746 209.333 361.676C210.201 361.468 211.024 360.684 211.545 359.58C212.455 357.636 212.199 355.268 210.969 354.295C210.649 354.024 210.247 353.873 209.83 353.868V353.884Z" fill="white"/>
<path d="M213.231 360.075C213.195 360.074 213.159 360.065 213.126 360.048C213.093 360.032 213.065 360.008 213.042 359.979C212.838 359.756 212.59 359.581 212.314 359.463C212.038 359.346 211.741 359.29 211.442 359.299C211.41 359.298 211.379 359.291 211.35 359.277C211.321 359.264 211.296 359.245 211.274 359.222C211.252 359.198 211.235 359.171 211.224 359.141C211.213 359.111 211.208 359.079 211.209 359.047C211.21 359.015 211.216 358.984 211.229 358.954C211.242 358.925 211.26 358.899 211.283 358.877C211.305 358.855 211.332 358.838 211.362 358.826C211.391 358.815 211.422 358.81 211.454 358.811C211.824 358.805 212.192 358.88 212.532 359.03C212.872 359.181 213.176 359.403 213.425 359.683C213.462 359.734 213.479 359.799 213.47 359.863C213.461 359.926 213.428 359.984 213.377 360.023C213.336 360.057 213.284 360.075 213.231 360.075V360.075Z" fill="white"/>
<defs>
<linearGradient id="paint0_linear_2391_8037" x1="154.045" y1="180.525" x2="154.045" y2="399.423" gradientUnits="userSpaceOnUse">
<stop stop-color="#2D2AB9"/>
<stop offset="1" stop-color="#FA00FF" stop-opacity="0.18"/>
</linearGradient>
<linearGradient id="paint1_linear_2391_8037" x1="295.476" y1="180.514" x2="295.476" y2="399.412" gradientUnits="userSpaceOnUse">
<stop stop-color="#2D2AB9"/>
<stop offset="1" stop-color="#FA00FF" stop-opacity="0.18"/>
</linearGradient>
<linearGradient id="paint2_linear_2391_8037" x1="466.16" y1="175.617" x2="466.16" y2="423.016" gradientUnits="userSpaceOnUse">
<stop stop-color="#2D2AB9"/>
<stop offset="1" stop-color="#FA00FF" stop-opacity="0.18"/>
</linearGradient>
</defs>
</svg>
