<svg width="128" height="33" viewBox="0 0 128 33" fill="none" xmlns="http://www.w3.org/2000/svg">
<g clip-path="url(#clip0_1_1303)">
<mask id="mask0_1_1303" style="mask-type:luminance" maskUnits="userSpaceOnUse" x="9" y="0" width="56" height="29">
<path d="M9 0H64.3385V28.6304H9V0Z" fill="white"/>
</mask>
<g mask="url(#mask0_1_1303)">
<path fill-rule="evenodd" clip-rule="evenodd" d="M27.1346 0.0454102H50.7586C55.9684 0.0454102 60.2358 3.9478 60.2358 8.71194C60.2358 13.4761 55.9684 17.3785 50.7586 17.3785H9C10.199 13.8474 13.8114 11.2657 18.052 11.2657H50.7586C52.2948 11.2657 53.5474 10.1167 53.5474 8.71544C53.5474 7.31072 52.2948 6.16172 50.7586 6.16172H18.0826C19.2816 2.62715 22.894 0.0454102 27.1346 0.0454102ZM64.4075 22.4789C63.2085 26.01 59.5961 28.5917 55.3555 28.5917H31.7315C27.4909 28.5917 23.8785 26.01 22.6795 22.4789H64.4075Z" fill="white"/>
</g>
<path d="M64.1535 18.2308V7.89746H71.4451V9.87663H66.5493V12.0641H70.8618V13.8141H66.5493V16.2516H71.591V18.2308H64.1535Z" fill="white"/>
<path d="M74.4738 18.2308V7.89746H77.3905L81.5988 15.2516H81.6196V7.89746H83.9738V18.2308H81.0571L76.8488 10.8766H76.828V18.2308H74.4738Z" fill="white"/>
<path d="M91.5779 18.585C90.7289 18.585 89.9633 18.4495 89.2862 18.1891C88.6039 17.9287 88.0467 17.5381 87.6196 17.0225C87.2029 16.512 86.9529 15.8766 86.8696 15.1266L89.1404 14.71C89.2237 15.3245 89.4946 15.8141 89.9529 16.1891C90.4217 16.5641 90.9998 16.7516 91.6821 16.7516C92.3071 16.7516 92.7914 16.6266 93.1404 16.3766C93.4998 16.1162 93.6821 15.7829 93.6821 15.3766C93.6821 15.0589 93.5414 14.8037 93.2654 14.6058C92.9998 14.4131 92.5623 14.2516 91.9529 14.1266L90.5154 13.8558C89.3748 13.6214 88.5414 13.2673 88.0154 12.7933C87.4842 12.3245 87.2237 11.6839 87.2237 10.8766C87.2237 10.1995 87.3956 9.60579 87.7446 9.10579C88.1039 8.60579 88.5987 8.22038 89.2237 7.93913C89.8487 7.66309 90.5571 7.52246 91.3487 7.52246C92.0675 7.52246 92.7237 7.64746 93.3071 7.89746C93.9008 8.14746 94.38 8.49642 94.7446 8.93913C95.1196 9.38705 95.3539 9.90788 95.4529 10.5016L93.2237 11.0016C93.1508 10.5016 92.9425 10.1058 92.5987 9.81413C92.2498 9.51205 91.8279 9.35579 91.3279 9.35579C90.8123 9.35579 90.4008 9.48079 90.0987 9.73079C89.8071 9.97038 89.6612 10.2673 89.6612 10.6266C89.6612 10.9495 89.7862 11.1995 90.0362 11.3766C90.2862 11.5589 90.6717 11.7048 91.2029 11.8141L92.6612 12.085C93.8383 12.2829 94.7081 12.6266 95.2654 13.1266C95.8175 13.6162 96.0987 14.2829 96.0987 15.1266C96.0987 15.835 95.9008 16.4548 95.5154 16.9808C95.1404 17.512 94.6092 17.9131 93.9321 18.1891C93.2498 18.4495 92.4633 18.585 91.5779 18.585Z" fill="white"/>
<path d="M104.263 18.585C103.107 18.585 102.102 18.3558 101.243 17.8975C100.378 17.4391 99.7113 16.8037 99.2425 15.9808C98.7686 15.1475 98.5342 14.1787 98.5342 13.0641C98.5342 11.9548 98.7686 10.9912 99.2425 10.1683C99.7113 9.33496 100.378 8.68913 101.243 8.23079C102.102 7.76204 103.107 7.52246 104.263 7.52246C105.414 7.52246 106.42 7.76204 107.284 8.23079C108.144 8.68913 108.81 9.33496 109.284 10.1683C109.753 10.9912 109.993 11.9548 109.993 13.0641C109.993 14.1787 109.753 15.1475 109.284 15.9808C108.81 16.8037 108.144 17.4391 107.284 17.8975C106.42 18.3558 105.414 18.585 104.263 18.585ZM104.263 16.46C104.914 16.46 105.482 16.3245 105.972 16.0433C106.456 15.7673 106.831 15.3714 107.097 14.8558C107.373 14.3454 107.513 13.7464 107.513 13.0641C107.513 12.3714 107.373 11.7673 107.097 11.2516C106.831 10.7412 106.456 10.3454 105.972 10.0641C105.482 9.78809 104.914 9.64746 104.263 9.64746C103.607 9.64746 103.034 9.78809 102.534 10.0641C102.045 10.3454 101.67 10.7412 101.409 11.2516C101.144 11.7673 101.013 12.3714 101.013 13.0641C101.013 13.7464 101.144 14.3454 101.409 14.8558C101.67 15.3714 102.045 15.7673 102.534 16.0433C103.034 16.3245 103.607 16.46 104.263 16.46Z" fill="white"/>
<path d="M68.1483 24.8395V20.7354H70.7316V21.1729H68.6275V22.5895H70.3775V23.0062H68.6275V24.8395H68.1483Z" fill="white"/>
<path d="M73.5927 24.8395V20.7354H74.0718V24.8395H73.5927Z" fill="white"/>
<path d="M77.1642 24.8395V20.7354H77.8101L79.8934 24.2145H79.9142V20.7354H80.3934V24.8395H79.7476L77.6434 21.3604V24.8395H77.1642Z" fill="white"/>
<path d="M83.2067 24.8395L84.7901 20.7354H85.3734L86.9567 24.8395H86.4359L86.0817 23.8604H84.1026L83.7276 24.8395H83.2067ZM84.2276 23.4229H85.9359L85.0817 21.2145L84.2276 23.4229Z" fill="white"/>
<path d="M89.7628 24.8395V20.7354H90.4086L92.4919 24.2145H92.5128V20.7354H92.9919V24.8395H92.3461L90.2419 21.3604V24.8395H89.7628Z" fill="white"/>
<path d="M98.1177 24.9852C97.6698 24.9852 97.2844 24.8914 96.951 24.7144C96.6281 24.5373 96.3781 24.2873 96.201 23.9644C96.0344 23.631 95.951 23.2456 95.951 22.7977C95.951 22.3394 96.0344 21.9539 96.201 21.631C96.3677 21.2977 96.6021 21.0425 96.9094 20.8602C97.2115 20.6831 97.5761 20.5894 97.9927 20.5894C98.2844 20.5894 98.5448 20.6519 98.7844 20.7769C99.0344 20.8914 99.2427 21.0581 99.4094 21.2769C99.5761 21.4852 99.6906 21.7352 99.7636 22.0269L99.3052 22.1519C99.2323 21.8081 99.0813 21.5373 98.8469 21.3394C98.6073 21.131 98.3261 21.0269 97.9927 21.0269C97.6698 21.0269 97.3938 21.105 97.1594 21.256C96.9198 21.3966 96.7427 21.5998 96.6177 21.8602C96.4927 22.1258 96.4302 22.4383 96.4302 22.7977C96.4302 23.1466 96.4979 23.4591 96.6385 23.7352C96.774 24.0008 96.9719 24.2039 97.2219 24.3394C97.4823 24.48 97.7844 24.5477 98.1177 24.5477C98.3938 24.5477 98.6386 24.4956 98.8469 24.381C99.0656 24.2716 99.2479 24.1206 99.3886 23.9227C99.524 23.7144 99.6177 23.48 99.6594 23.2144L100.118 23.3185C100.076 23.6675 99.9615 23.9644 99.7844 24.2144C99.6021 24.4539 99.3677 24.6414 99.0761 24.7769C98.7948 24.9123 98.4771 24.9852 98.1177 24.9852Z" fill="white"/>
<path d="M102.989 24.8395V20.7354H105.781V21.1729H103.448V22.5062H105.552V22.9229H103.448V24.402H105.844V24.8395H102.989Z" fill="white"/>
</g>
<defs>
<clipPath id="clip0_1_1303">
<rect width="128" height="33" fill="white"/>
</clipPath>
</defs>
</svg>
