<svg width="19" height="22" viewBox="0 0 19 22" fill="none" xmlns="http://www.w3.org/2000/svg">
<path d="M19 11.0134C19 11.7084 18.7841 12.4061 18.3523 12.9648C18.2713 13.0744 17.8935 13.5261 17.5966 13.8202L17.4347 13.9806C15.1676 16.4158 9.52699 20.078 6.66619 21.2515C6.66619 21.2782 4.96591 21.9759 4.15625 22H4.0483C2.80682 22 1.64631 21.3077 1.05256 20.1849C0.728693 19.5674 0.431818 17.7764 0.40483 17.7524C0.161932 16.1458 0 13.6865 0 10.9866C0 8.15577 0.161932 5.58688 0.458807 4.00972C0.458807 3.98299 0.755682 2.53949 0.944602 2.05832C1.24148 1.36598 1.78125 0.775213 2.45597 0.400972C2.99574 0.136331 3.5625 0 4.15625 0C4.77699 0.0294046 5.9375 0.427704 6.39631 0.614824C9.41903 1.79101 15.1946 5.64034 17.4077 7.99271C17.7855 8.36695 18.1903 8.82406 18.2983 8.92831C18.7571 9.5164 19 10.2382 19 11.0134Z" fill="white"/>
</svg>
